<svg width="139" height="152" viewBox="0 0 139 152" fill="none" xmlns="http://www.w3.org/2000/svg">
<path d="M134.838 96.7831L112.172 57.5785L83.8155 8.52919C77.2408 -2.84306 60.8032 -2.84306 54.2284 8.52919L25.871 57.5785L3.20408 96.7831C-5.89965 112.529 5.48 132.213 23.6875 132.213H29.0027C42.7066 132.213 55.6671 138.431 64.232 149.112C66.3615 152.793 71.6825 152.793 73.812 149.112C82.3755 138.431 95.3388 132.213 109.04 132.213H114.355C132.563 132.213 143.944 112.529 134.838 96.7831ZM60.988 126.489L17.805 113.692C17.2463 113.527 17.0089 113.053 17.0388 112.596C16.999 112.028 17.3856 111.429 18.1121 111.429H55.7865C56.2172 111.429 56.6067 111.686 56.7773 112.08L62.2845 124.879C62.357 125.05 62.3826 125.222 62.3698 125.383C62.4209 126.093 61.74 126.712 60.988 126.489ZM69.6723 125.724C69.3895 126.334 68.6517 126.334 68.3688 125.724L59.882 107.386C59.7455 107.091 59.7455 106.733 59.882 106.439L68.3688 88.1009C68.6517 87.4905 69.3895 87.4905 69.6723 88.1009L78.1591 106.439C78.2956 106.733 78.2956 107.091 78.1591 107.386L69.6723 125.724ZM120.438 113.692L77.2578 126.489C76.3821 126.749 75.6003 125.87 75.9599 125.033L81.4685 112.235C81.6363 111.841 82.0272 111.584 82.458 111.584H120.132C121.376 111.584 121.631 113.338 120.438 113.692ZM119.69 107.234H85.702C84.5633 107.234 83.5241 106.594 83.0351 105.59L71.4052 79.0156C70.4698 77.0949 67.5727 77.0949 66.6373 79.0156L55.006 105.59C54.517 106.594 53.4793 107.234 52.3392 107.234H18.3495C16.0778 107.234 14.6576 104.838 15.7935 102.919L66.4653 17.3703C67.5812 15.4851 70.4599 15.4851 71.5772 17.3703L122.248 102.919C123.383 104.838 121.965 107.234 119.69 107.234Z" fill="black" fill-opacity="0.4"/>
</svg>
