<svg width="27" height="27" viewBox="0 0 27 27" fill="none" xmlns="http://www.w3.org/2000/svg">
<path d="M21.3613 2.26367L24.7366 5.63902L22.1639 8.2116L18.7887 4.83626L21.3613 2.26367Z" fill="white"/>
<path d="M9 18H12.375L20.5729 9.80212L17.1979 6.42712L9 14.625V18Z" fill="white"/>
<path d="M21.375 21.375H9.17775C9.1485 21.375 9.11813 21.3862 9.08888 21.3862C9.05175 21.3862 9.01463 21.3761 8.97638 21.375H5.625V5.625H13.3279L15.5779 3.375H5.625C4.38412 3.375 3.375 4.383 3.375 5.625V21.375C3.375 22.617 4.38412 23.625 5.625 23.625H21.375C22.617 23.625 23.625 22.617 23.625 21.375V11.6235L21.375 13.8735V21.375Z" fill="white"/>
</svg>
