<svg width="46" height="46" viewBox="0 0 46 46" fill="none" xmlns="http://www.w3.org/2000/svg">
<path d="M22.9987 3.83337C12.6084 3.83337 3.83203 12.6098 3.83203 23C3.83203 33.3903 12.6084 42.1667 22.9987 42.1667C33.389 42.1667 42.1654 33.3903 42.1654 23C42.1654 12.6098 33.389 3.83337 22.9987 3.83337ZM22.9987 13.4167C26.3088 13.4167 28.7487 15.8547 28.7487 19.1667C28.7487 22.4787 26.3088 24.9167 22.9987 24.9167C19.6905 24.9167 17.2487 22.4787 17.2487 19.1667C17.2487 15.8547 19.6905 13.4167 22.9987 13.4167ZM13.2122 32.1464C14.9314 29.6164 17.7988 27.9297 21.082 27.9297H24.9154C28.2005 27.9297 31.066 29.6164 32.7852 32.1464C30.3357 34.7684 26.8608 36.4167 22.9987 36.4167C19.1366 36.4167 15.6617 34.7684 13.2122 32.1464Z" fill="white"/>
</svg>
