<svg width="32" height="32" viewBox="0 0 32 32" fill="none" xmlns="http://www.w3.org/2000/svg">
<path d="M23.3333 10.6667C20.0253 10.6667 17.3333 13.3587 17.3333 16.6667C17.3333 17.9 17.7079 19.0453 18.3493 20H13.6519C14.2919 19.0453 14.6666 17.9 14.6666 16.6667C14.6666 13.3587 11.9746 10.6667 8.6666 10.6667C5.3586 10.6667 2.6666 13.3587 2.6666 16.6667C2.6666 19.9747 5.3586 22.6667 8.6666 22.6667C8.8946 22.6667 9.11193 22.624 9.33326 22.5987V22.6667H23.9999V22.5987C26.9919 22.2627 29.3333 19.7467 29.3333 16.6667C29.3333 13.3587 26.6413 10.6667 23.3333 10.6667ZM5.33326 16.6667C5.33326 14.828 6.82793 13.3333 8.6666 13.3333C10.5053 13.3333 11.9999 14.828 11.9999 16.6667C11.9999 18.5053 10.5053 20 8.6666 20C6.82793 20 5.33326 18.5053 5.33326 16.6667ZM23.3333 20C21.4946 20 19.9999 18.5053 19.9999 16.6667C19.9999 14.828 21.4946 13.3333 23.3333 13.3333C25.1719 13.3333 26.6666 14.828 26.6666 16.6667C26.6666 18.5053 25.1719 20 23.3333 20Z" fill="#0F002E"/>
</svg>
