<svg width="2883" height="1052" viewBox="0 0 2883 1052" fill="none" xmlns="http://www.w3.org/2000/svg">
<g opacity="0.4">
<g opacity="0.2">
<path opacity="0.5" d="M1920.52 929.933L1723.47 929.933C1707.19 929.933 1694 943.17 1694 959.494C1693.99 975.83 1707.18 989.067 1723.47 989.067L1920.52 989.067C1936.79 989.067 1949.98 975.83 1949.98 959.506C1949.98 943.17 1936.79 929.933 1920.52 929.933Z" fill="url(#paint0_linear)"/>
<path d="M1920.52 929.946C1904.24 929.946 1891.05 943.18 1891.05 959.506C1891.05 975.832 1904.24 989.067 1920.52 989.067C1936.79 989.067 1949.98 975.832 1949.98 959.506C1949.98 943.18 1936.79 929.946 1920.52 929.946Z" fill="#F9F9F9"/>
</g>
<g opacity="0.2">
<path opacity="0.5" d="M2769.62 897L2546.38 897C2527.95 897 2513 911.995 2513 930.489C2512.99 948.996 2527.93 963.991 2546.38 963.991L2769.62 963.991C2788.05 963.991 2803 948.996 2803 930.503C2803 911.995 2788.05 897 2769.62 897Z" fill="url(#paint1_linear)"/>
<path d="M2769.62 897.014C2751.18 897.014 2736.24 912.007 2736.24 930.503C2736.24 948.998 2751.18 963.991 2769.62 963.991C2788.05 963.991 2803 948.998 2803 930.503C2803 912.007 2788.05 897.014 2769.62 897.014Z" fill="#F9F9F9"/>
</g>
<g opacity="0.2">
<path opacity="0.5" d="M1073.62 370L810.365 370C788.626 370 771 387.683 771 409.492C770.983 431.317 788.61 449 810.365 449L1073.62 449C1095.36 449 1112.98 431.317 1112.98 409.508C1112.98 387.683 1095.36 370 1073.62 370Z" fill="url(#paint2_linear)"/>
<path d="M1073.62 370.016C1051.88 370.016 1034.25 387.698 1034.25 409.508C1034.25 431.319 1051.88 449 1073.62 449C1095.36 449 1112.98 431.319 1112.98 409.508C1112.98 387.698 1095.36 370.016 1073.62 370.016Z" fill="#F9F9F9"/>
</g>
<g opacity="0.2">
<path opacity="0.5" d="M1963.65 202L1740.39 202C1721.95 202 1707 216.997 1707 235.493C1706.99 254.002 1721.94 269 1740.39 269L1963.65 269C1982.09 269 1997.04 254.003 1997.04 235.507C1997.04 216.997 1982.09 202 1963.65 202Z" fill="url(#paint3_linear)"/>
<path d="M1963.65 202.014C1945.21 202.014 1930.27 217.009 1930.27 235.507C1930.27 254.004 1945.21 269 1963.65 269C1982.09 269 1997.04 254.004 1997.04 235.507C1997.04 217.009 1982.09 202.014 1963.65 202.014Z" fill="#F9F9F9"/>
</g>
<g opacity="0.2">
<path opacity="0.5" d="M2823.62 156L2560.37 156C2538.63 156 2521 173.683 2521 195.492C2520.98 217.317 2538.61 235 2560.37 235L2823.62 235C2845.36 235 2862.98 217.317 2862.98 195.508C2862.98 173.683 2845.36 156 2823.62 156Z" fill="url(#paint4_linear)"/>
<path d="M2823.62 156.016C2801.88 156.016 2784.25 173.698 2784.25 195.508C2784.25 217.319 2801.88 235 2823.62 235C2845.36 235 2862.98 217.319 2862.98 195.508C2862.98 173.698 2845.36 156.016 2823.62 156.016Z" fill="#F9F9F9"/>
</g>
<g opacity="0.2">
<path opacity="0.5" d="M1567.65 713L1351.35 713C1333.48 713 1319 727.53 1319 745.45C1318.99 763.383 1333.47 777.913 1351.35 777.913L1567.65 777.913C1585.52 777.913 1600 763.383 1600 745.463C1600 727.53 1585.52 713 1567.65 713Z" fill="url(#paint5_linear)"/>
<path d="M1567.65 713.014C1549.79 713.014 1535.31 727.542 1535.31 745.463C1535.31 763.384 1549.79 777.913 1567.65 777.913C1585.52 777.913 1600 763.384 1600 745.463C1600 727.542 1585.52 713.014 1567.65 713.014Z" fill="#F9F9F9"/>
</g>
<g opacity="0.2">
<path opacity="0.5" d="M2418.65 761L2202.35 761C2184.48 761 2170 775.53 2170 793.449C2169.99 811.382 2184.47 825.912 2202.35 825.912L2418.65 825.912C2436.52 825.912 2451 811.382 2451 793.463C2451 775.53 2436.52 761 2418.65 761Z" fill="url(#paint6_linear)"/>
<path d="M2418.65 761.013C2400.79 761.013 2386.31 775.541 2386.31 793.463C2386.31 811.384 2400.79 825.912 2418.65 825.912C2436.52 825.912 2451 811.384 2451 793.463C2451 775.542 2436.52 761.013 2418.65 761.013Z" fill="#F9F9F9"/>
</g>
<g opacity="0.2">
<path opacity="0.5" d="M1009.69 73.9999L1216.29 73.9999C1233.35 73.9998 1247.19 60.1218 1247.19 43.0063C1247.2 25.878 1233.37 12 1216.29 12L1009.69 12C992.629 12 978.796 25.8781 978.796 42.9935C978.796 60.1218 992.629 73.9999 1009.69 73.9999Z" fill="url(#paint7_linear)"/>
<path d="M1009.69 73.987C1026.75 73.987 1040.58 60.1107 1040.58 42.9935C1040.58 25.8762 1026.75 12 1009.69 12C992.628 12 978.796 25.8763 978.796 42.9935C978.796 60.1107 992.628 73.987 1009.69 73.987Z" fill="#F9F9F9"/>
</g>
<g opacity="0.2">
<path opacity="0.5" d="M2473.79 594.739L2626.21 594.739C2638.79 594.739 2649 584.501 2649 571.874C2649.01 559.238 2638.8 549 2626.21 549L2473.79 549C2461.21 549 2451 559.238 2451 571.865C2451 584.501 2461.21 594.739 2473.79 594.739Z" fill="url(#paint8_linear)"/>
<path d="M2473.79 594.73C2486.38 594.73 2496.58 584.493 2496.58 571.865C2496.58 559.237 2486.38 549 2473.79 549C2461.2 549 2451 559.237 2451 571.865C2451 584.493 2461.2 594.73 2473.79 594.73Z" fill="#F9F9F9"/>
</g>
<g opacity="0.2">
<path opacity="0.5" d="M1007.79 689.739L1160.21 689.739C1172.79 689.739 1183 679.501 1183 666.874C1183.01 654.238 1172.8 644 1160.21 644L1007.79 644C995.205 644 985 654.238 985 666.865C985 679.501 995.205 689.739 1007.79 689.739Z" fill="url(#paint9_linear)"/>
<path d="M1007.79 689.73C1020.38 689.73 1030.58 679.493 1030.58 666.865C1030.58 654.237 1020.38 644 1007.79 644C995.204 644 985 654.237 985 666.865C985 679.493 995.204 689.73 1007.79 689.73Z" fill="#F9F9F9"/>
</g>
<g opacity="0.2">
<path opacity="0.5" d="M166.793 73.7391L319.211 73.739C331.797 73.739 342.002 63.5008 342.002 50.8743C342.012 38.2382 331.806 28 319.211 28L166.793 28C154.207 28 144.002 38.2382 144.002 50.8648C144.002 63.5008 154.207 73.7391 166.793 73.7391Z" fill="url(#paint10_linear)"/>
<path d="M166.793 73.7295C179.381 73.7295 189.585 63.4926 189.585 50.8648C189.585 38.2369 179.381 28 166.793 28C154.206 28 144.002 38.2369 144.002 50.8648C144.002 63.4926 154.206 73.7295 166.793 73.7295Z" fill="#F9F9F9"/>
</g>
<g opacity="0.2">
<path opacity="0.5" d="M2707.79 459.739L2860.21 459.739C2872.8 459.739 2883 449.501 2883 436.874C2883.01 424.238 2872.81 414 2860.21 414L2707.79 414C2695.21 414 2685 424.238 2685 436.865C2685 449.501 2695.21 459.739 2707.79 459.739Z" fill="url(#paint11_linear)"/>
<path d="M2707.79 459.73C2720.38 459.73 2730.58 449.493 2730.58 436.865C2730.58 424.237 2720.38 414 2707.79 414C2695.21 414 2685 424.237 2685 436.865C2685 449.493 2695.21 459.73 2707.79 459.73Z" fill="#F9F9F9"/>
</g>
<g opacity="0.2">
<path opacity="0.5" d="M425.793 190.739L578.211 190.739C590.797 190.739 601.002 180.501 601.002 167.874C601.012 155.238 590.806 145 578.211 145L425.793 145C413.207 145 403.002 155.238 403.002 167.865C403.002 180.501 413.207 190.739 425.793 190.739Z" fill="url(#paint12_linear)"/>
<path d="M425.793 190.73C438.381 190.73 448.585 180.493 448.585 167.865C448.585 155.237 438.381 145 425.793 145C413.206 145 403.002 155.237 403.002 167.865C403.002 180.493 413.206 190.73 425.793 190.73Z" fill="#F9F9F9"/>
</g>
<g opacity="0.2">
<path opacity="0.5" d="M647.791 300.739L800.209 300.739C812.795 300.739 823 290.501 823 277.874C823.01 265.238 812.804 255 800.209 255L647.791 255C635.205 255 625 265.238 625 277.865C625 290.501 635.205 300.739 647.791 300.739Z" fill="url(#paint13_linear)"/>
<path d="M647.791 300.73C660.379 300.73 670.583 290.493 670.583 277.865C670.583 265.237 660.379 255 647.791 255C635.204 255 625 265.237 625 277.865C625 290.493 635.204 300.73 647.791 300.73Z" fill="#F9F9F9"/>
</g>
<g opacity="0.2">
<path opacity="0.5" d="M166.793 781.739L319.211 781.739C331.797 781.739 342.002 771.501 342.002 758.874C342.012 746.238 331.806 736 319.211 736L166.793 736C154.207 736 144.002 746.238 144.002 758.865C144.002 771.501 154.207 781.739 166.793 781.739Z" fill="url(#paint14_linear)"/>
<path d="M166.793 781.73C179.381 781.73 189.585 771.493 189.585 758.865C189.585 746.237 179.381 736 166.793 736C154.206 736 144.002 746.237 144.002 758.865C144.002 771.493 154.206 781.73 166.793 781.73Z" fill="#F9F9F9"/>
</g>
<g opacity="0.2">
<path opacity="0.5" d="M1470.21 179L1317.79 179C1305.21 179 1295 189.238 1295 201.865C1294.99 214.501 1305.2 224.739 1317.79 224.739L1470.21 224.739C1482.79 224.739 1493 214.501 1493 201.874C1493 189.238 1482.79 179 1470.21 179Z" fill="url(#paint15_linear)"/>
<path d="M1470.21 179.009C1457.62 179.009 1447.42 189.246 1447.42 201.874C1447.42 214.502 1457.62 224.739 1470.21 224.739C1482.8 224.739 1493 214.502 1493 201.874C1493 189.246 1482.8 179.009 1470.21 179.009Z" fill="#F9F9F9"/>
</g>
<g opacity="0.2">
<path opacity="0.5" d="M2345.21 87L2192.79 87C2180.21 87 2170 97.2382 2170 109.865C2169.99 122.501 2180.2 132.739 2192.79 132.739L2345.21 132.739C2357.8 132.739 2368 122.501 2368 109.874C2368 97.2382 2357.8 87 2345.21 87Z" fill="url(#paint16_linear)"/>
<path d="M2345.21 87.0095C2332.62 87.0095 2322.42 97.2464 2322.42 109.874C2322.42 122.502 2332.62 132.739 2345.21 132.739C2357.8 132.739 2368 122.502 2368 109.874C2368 97.2464 2357.8 87.0095 2345.21 87.0095Z" fill="#F9F9F9"/>
</g>
<g opacity="0.2">
<path opacity="0.5" d="M1882.21 460L1729.79 460C1717.21 460 1707 470.238 1707 482.865C1706.99 495.501 1717.2 505.739 1729.79 505.739L1882.21 505.739C1894.79 505.739 1905 495.501 1905 482.874C1905 470.238 1894.79 460 1882.21 460Z" fill="url(#paint17_linear)"/>
<path d="M1882.21 460.009C1869.62 460.009 1859.42 470.246 1859.42 482.874C1859.42 495.502 1869.62 505.739 1882.21 505.739C1894.8 505.739 1905 495.502 1905 482.874C1905 470.246 1894.8 460.009 1882.21 460.009Z" fill="#F9F9F9"/>
</g>
<g opacity="0.2">
<path opacity="0.5" d="M2246.21 387L2093.79 387C2081.21 387 2071 397.238 2071 409.865C2070.99 422.501 2081.2 432.739 2093.79 432.739L2246.21 432.739C2258.79 432.739 2269 422.501 2269 409.874C2269 397.238 2258.79 387 2246.21 387Z" fill="url(#paint18_linear)"/>
<path d="M2246.21 387.009C2233.62 387.009 2223.42 397.246 2223.42 409.874C2223.42 422.502 2233.62 432.739 2246.21 432.739C2258.8 432.739 2269 422.502 2269 409.874C2269 397.246 2258.8 387.009 2246.21 387.009Z" fill="#F9F9F9"/>
</g>
<g opacity="0.2">
<path opacity="0.5" d="M1470.21 433L1317.79 433C1305.21 433 1295 443.238 1295 455.865C1294.99 468.501 1305.2 478.739 1317.79 478.739L1470.21 478.739C1482.79 478.739 1493 468.501 1493 455.874C1493 443.238 1482.79 433 1470.21 433Z" fill="url(#paint19_linear)"/>
<path d="M1470.21 433.009C1457.62 433.009 1447.42 443.246 1447.42 455.874C1447.42 468.502 1457.62 478.739 1470.21 478.739C1482.8 478.739 1493 468.502 1493 455.874C1493 443.246 1482.8 433.009 1470.21 433.009Z" fill="#F9F9F9"/>
</g>
<g opacity="0.2">
<path opacity="0.5" d="M1802.21 12L1649.79 12C1637.21 12 1627 22.2382 1627 34.8647C1626.99 47.5008 1637.2 57.739 1649.79 57.739L1802.21 57.739C1814.8 57.739 1825 47.5008 1825 34.8742C1825 22.2382 1814.8 12 1802.21 12Z" fill="url(#paint20_linear)"/>
<path d="M1802.21 12.0095C1789.62 12.0095 1779.42 22.2464 1779.42 34.8742C1779.42 47.5021 1789.62 57.739 1802.21 57.739C1814.8 57.739 1825 47.5021 1825 34.8742C1825 22.2464 1814.8 12.0095 1802.21 12.0095Z" fill="#F9F9F9"/>
</g>
<g opacity="0.2">
<path opacity="0.5" d="M2688.21 -4.37839e-05L2535.79 -3.04591e-05C2523.21 -2.93588e-05 2513 10.2382 2513 22.8647C2512.99 35.5008 2523.2 45.739 2535.79 45.739L2688.21 45.739C2700.8 45.739 2711 35.5008 2711 22.8742C2711 10.2382 2700.8 -4.48842e-05 2688.21 -4.37839e-05Z" fill="url(#paint21_linear)"/>
<path d="M2688.21 0.00947389C2675.62 0.00947499 2665.42 10.2464 2665.42 22.8742C2665.42 35.5021 2675.62 45.739 2688.21 45.739C2700.8 45.739 2711 35.5021 2711 22.8742C2711 10.2464 2700.8 0.00947279 2688.21 0.00947389Z" fill="#F9F9F9"/>
</g>
<g opacity="0.2">
<path opacity="0.5" d="M497.209 572L344.791 572C332.205 572 322 582.238 322 594.865C321.99 607.501 332.196 617.739 344.791 617.739L497.209 617.739C509.795 617.739 520 607.501 520 594.874C520 582.238 509.795 572 497.209 572Z" fill="url(#paint22_linear)"/>
<path d="M497.209 572.01C484.621 572.01 474.417 582.247 474.417 594.874C474.417 607.502 484.621 617.739 497.209 617.739C509.796 617.739 520 607.502 520 594.874C520 582.247 509.796 572.01 497.209 572.01Z" fill="#F9F9F9"/>
</g>
<g opacity="0.2">
<path opacity="0.5" d="M1470.21 1006L1317.79 1006C1305.21 1006 1295 1016.24 1295 1028.86C1294.99 1041.5 1305.2 1051.74 1317.79 1051.74L1470.21 1051.74C1482.8 1051.74 1493 1041.5 1493 1028.87C1493 1016.24 1482.8 1006 1470.21 1006Z" fill="url(#paint23_linear)"/>
<path d="M1470.21 1006.01C1457.62 1006.01 1447.42 1016.25 1447.42 1028.87C1447.42 1041.5 1457.62 1051.74 1470.21 1051.74C1482.8 1051.74 1493 1041.5 1493 1028.87C1493 1016.25 1482.8 1006.01 1470.21 1006.01Z" fill="#F9F9F9"/>
</g>
<g opacity="0.2">
<path opacity="0.5" d="M2356.21 994L2203.79 994C2191.21 994 2181 1004.24 2181 1016.86C2180.99 1029.5 2191.2 1039.74 2203.79 1039.74L2356.21 1039.74C2368.8 1039.74 2379 1029.5 2379 1016.87C2379 1004.24 2368.8 994 2356.21 994Z" fill="url(#paint24_linear)"/>
<path d="M2356.21 994.009C2343.62 994.009 2333.42 1004.25 2333.42 1016.87C2333.42 1029.5 2343.62 1039.74 2356.21 1039.74C2368.8 1039.74 2379 1029.5 2379 1016.87C2379 1004.25 2368.8 994.009 2356.21 994.009Z" fill="#F9F9F9"/>
</g>
<g opacity="0.2">
<path opacity="0.5" d="M724.209 736L571.791 736C559.205 736 549 746.238 549 758.865C548.99 771.501 559.196 781.739 571.791 781.739L724.209 781.739C736.795 781.739 747 771.501 747 758.874C747 746.238 736.795 736 724.209 736Z" fill="url(#paint25_linear)"/>
<path d="M724.209 736.009C711.621 736.009 701.417 746.246 701.417 758.874C701.417 771.502 711.621 781.739 724.209 781.739C736.796 781.739 747 771.502 747 758.874C747 746.246 736.796 736.009 724.209 736.009Z" fill="#F9F9F9"/>
</g>
<g opacity="0.2">
<path opacity="0.5" d="M1007.79 998.739L1160.21 998.739C1172.79 998.739 1183 988.501 1183 975.874C1183.01 963.238 1172.8 953 1160.21 953L1007.79 953C995.205 953 985 963.238 985 975.865C985 988.501 995.205 998.739 1007.79 998.739Z" fill="url(#paint26_linear)"/>
<path d="M1007.79 998.73C1020.38 998.73 1030.58 988.493 1030.58 975.865C1030.58 963.237 1020.38 953 1007.79 953C995.204 953 985 963.237 985 975.865C985 988.493 995.204 998.73 1007.79 998.73Z" fill="#F9F9F9"/>
</g>
<g opacity="0.2">
<path opacity="0.5" d="M1913.79 735.739L2066.21 735.739C2078.79 735.739 2089 725.501 2089 712.874C2089.01 700.238 2078.8 690 2066.21 690L1913.79 690C1901.21 690 1891 700.238 1891 712.865C1891 725.501 1901.21 735.739 1913.79 735.739Z" fill="url(#paint27_linear)"/>
<path d="M1913.79 735.73C1926.38 735.73 1936.58 725.493 1936.58 712.865C1936.58 700.237 1926.38 690 1913.79 690C1901.2 690 1891 700.237 1891 712.865C1891 725.493 1901.2 735.73 1913.79 735.73Z" fill="#F9F9F9"/>
</g>
<g opacity="0.2">
<path opacity="0.5" d="M468.935 952.308L221.065 952.308C200.596 952.308 184 968.958 184 989.492C183.984 1010.04 200.581 1026.69 221.065 1026.69L468.935 1026.69C489.403 1026.69 506 1010.04 506 989.508C506 968.958 489.403 952.308 468.935 952.308Z" fill="url(#paint28_linear)"/>
<path d="M468.935 952.323C448.465 952.323 431.87 968.971 431.87 989.508C431.87 1010.04 448.465 1026.69 468.935 1026.69C489.405 1026.69 506 1010.04 506 989.508C506 968.971 489.405 952.323 468.935 952.323Z" fill="#F9F9F9"/>
</g>
<g opacity="0.2">
<path opacity="0.5" d="M271.974 355L35.379 355C15.8419 355 0.000218441 370.893 0.000216727 390.493C-0.0144945 410.107 15.8272 426 35.379 426L271.974 426C291.511 426 307.353 410.107 307.353 390.507C307.353 370.893 291.511 355 271.974 355Z" fill="url(#paint29_linear)"/>
<path d="M271.974 355.015C252.435 355.015 236.595 370.905 236.595 390.507C236.595 410.109 252.435 426 271.974 426C291.513 426 307.353 410.109 307.353 390.507C307.353 370.905 291.513 355.015 271.974 355.015Z" fill="#F9F9F9"/>
</g>
</g>
<defs>
<linearGradient id="paint0_linear" x1="1854.98" y1="959.502" x2="1702.11" y2="959.502" gradientUnits="userSpaceOnUse">
<stop stop-color="#F9F9F9"/>
<stop offset="1" stop-color="#F9F9F9" stop-opacity="0"/>
</linearGradient>
<linearGradient id="paint1_linear" x1="2695.37" y1="930.498" x2="2522.18" y2="930.498" gradientUnits="userSpaceOnUse">
<stop stop-color="#F9F9F9"/>
<stop offset="1" stop-color="#F9F9F9" stop-opacity="0"/>
</linearGradient>
<linearGradient id="paint2_linear" x1="986.062" y1="409.503" x2="781.829" y2="409.503" gradientUnits="userSpaceOnUse">
<stop stop-color="#F9F9F9"/>
<stop offset="1" stop-color="#F9F9F9" stop-opacity="0"/>
</linearGradient>
<linearGradient id="paint3_linear" x1="1889.39" y1="235.502" x2="1716.18" y2="235.502" gradientUnits="userSpaceOnUse">
<stop stop-color="#F9F9F9"/>
<stop offset="1" stop-color="#F9F9F9" stop-opacity="0"/>
</linearGradient>
<linearGradient id="paint4_linear" x1="2736.06" y1="195.503" x2="2531.83" y2="195.503" gradientUnits="userSpaceOnUse">
<stop stop-color="#F9F9F9"/>
<stop offset="1" stop-color="#F9F9F9" stop-opacity="0"/>
</linearGradient>
<linearGradient id="paint5_linear" x1="1495.71" y1="745.459" x2="1327.9" y2="745.459" gradientUnits="userSpaceOnUse">
<stop stop-color="#F9F9F9"/>
<stop offset="1" stop-color="#F9F9F9" stop-opacity="0"/>
</linearGradient>
<linearGradient id="paint6_linear" x1="2346.71" y1="793.458" x2="2178.9" y2="793.458" gradientUnits="userSpaceOnUse">
<stop stop-color="#F9F9F9"/>
<stop offset="1" stop-color="#F9F9F9" stop-opacity="0"/>
</linearGradient>
<linearGradient id="paint7_linear" x1="1078.41" y1="42.9977" x2="1238.69" y2="42.9977" gradientUnits="userSpaceOnUse">
<stop stop-color="#F9F9F9"/>
<stop offset="1" stop-color="#F9F9F9" stop-opacity="0"/>
</linearGradient>
<linearGradient id="paint8_linear" x1="2524.48" y1="571.868" x2="2642.73" y2="571.868" gradientUnits="userSpaceOnUse">
<stop stop-color="#F9F9F9"/>
<stop offset="1" stop-color="#F9F9F9" stop-opacity="0"/>
</linearGradient>
<linearGradient id="paint9_linear" x1="1058.48" y1="666.868" x2="1176.73" y2="666.868" gradientUnits="userSpaceOnUse">
<stop stop-color="#F9F9F9"/>
<stop offset="1" stop-color="#F9F9F9" stop-opacity="0"/>
</linearGradient>
<linearGradient id="paint10_linear" x1="217.487" y1="50.8679" x2="335.732" y2="50.8679" gradientUnits="userSpaceOnUse">
<stop stop-color="#F9F9F9"/>
<stop offset="1" stop-color="#F9F9F9" stop-opacity="0"/>
</linearGradient>
<linearGradient id="paint11_linear" x1="2758.49" y1="436.868" x2="2876.73" y2="436.868" gradientUnits="userSpaceOnUse">
<stop stop-color="#F9F9F9"/>
<stop offset="1" stop-color="#F9F9F9" stop-opacity="0"/>
</linearGradient>
<linearGradient id="paint12_linear" x1="476.487" y1="167.868" x2="594.732" y2="167.868" gradientUnits="userSpaceOnUse">
<stop stop-color="#F9F9F9"/>
<stop offset="1" stop-color="#F9F9F9" stop-opacity="0"/>
</linearGradient>
<linearGradient id="paint13_linear" x1="698.485" y1="277.868" x2="816.73" y2="277.868" gradientUnits="userSpaceOnUse">
<stop stop-color="#F9F9F9"/>
<stop offset="1" stop-color="#F9F9F9" stop-opacity="0"/>
</linearGradient>
<linearGradient id="paint14_linear" x1="217.487" y1="758.868" x2="335.732" y2="758.868" gradientUnits="userSpaceOnUse">
<stop stop-color="#F9F9F9"/>
<stop offset="1" stop-color="#F9F9F9" stop-opacity="0"/>
</linearGradient>
<linearGradient id="paint15_linear" x1="1419.52" y1="201.871" x2="1301.27" y2="201.871" gradientUnits="userSpaceOnUse">
<stop stop-color="#F9F9F9"/>
<stop offset="1" stop-color="#F9F9F9" stop-opacity="0"/>
</linearGradient>
<linearGradient id="paint16_linear" x1="2294.52" y1="109.871" x2="2176.27" y2="109.871" gradientUnits="userSpaceOnUse">
<stop stop-color="#F9F9F9"/>
<stop offset="1" stop-color="#F9F9F9" stop-opacity="0"/>
</linearGradient>
<linearGradient id="paint17_linear" x1="1831.52" y1="482.871" x2="1713.27" y2="482.871" gradientUnits="userSpaceOnUse">
<stop stop-color="#F9F9F9"/>
<stop offset="1" stop-color="#F9F9F9" stop-opacity="0"/>
</linearGradient>
<linearGradient id="paint18_linear" x1="2195.52" y1="409.871" x2="2077.27" y2="409.871" gradientUnits="userSpaceOnUse">
<stop stop-color="#F9F9F9"/>
<stop offset="1" stop-color="#F9F9F9" stop-opacity="0"/>
</linearGradient>
<linearGradient id="paint19_linear" x1="1419.52" y1="455.871" x2="1301.27" y2="455.871" gradientUnits="userSpaceOnUse">
<stop stop-color="#F9F9F9"/>
<stop offset="1" stop-color="#F9F9F9" stop-opacity="0"/>
</linearGradient>
<linearGradient id="paint20_linear" x1="1751.52" y1="34.8711" x2="1633.27" y2="34.8711" gradientUnits="userSpaceOnUse">
<stop stop-color="#F9F9F9"/>
<stop offset="1" stop-color="#F9F9F9" stop-opacity="0"/>
</linearGradient>
<linearGradient id="paint21_linear" x1="2637.52" y1="22.8711" x2="2519.27" y2="22.8711" gradientUnits="userSpaceOnUse">
<stop stop-color="#F9F9F9"/>
<stop offset="1" stop-color="#F9F9F9" stop-opacity="0"/>
</linearGradient>
<linearGradient id="paint22_linear" x1="446.515" y1="594.871" x2="328.27" y2="594.871" gradientUnits="userSpaceOnUse">
<stop stop-color="#F9F9F9"/>
<stop offset="1" stop-color="#F9F9F9" stop-opacity="0"/>
</linearGradient>
<linearGradient id="paint23_linear" x1="1419.52" y1="1028.87" x2="1301.27" y2="1028.87" gradientUnits="userSpaceOnUse">
<stop stop-color="#F9F9F9"/>
<stop offset="1" stop-color="#F9F9F9" stop-opacity="0"/>
</linearGradient>
<linearGradient id="paint24_linear" x1="2305.52" y1="1016.87" x2="2187.27" y2="1016.87" gradientUnits="userSpaceOnUse">
<stop stop-color="#F9F9F9"/>
<stop offset="1" stop-color="#F9F9F9" stop-opacity="0"/>
</linearGradient>
<linearGradient id="paint25_linear" x1="673.515" y1="758.871" x2="555.27" y2="758.871" gradientUnits="userSpaceOnUse">
<stop stop-color="#F9F9F9"/>
<stop offset="1" stop-color="#F9F9F9" stop-opacity="0"/>
</linearGradient>
<linearGradient id="paint26_linear" x1="1058.48" y1="975.868" x2="1176.73" y2="975.868" gradientUnits="userSpaceOnUse">
<stop stop-color="#F9F9F9"/>
<stop offset="1" stop-color="#F9F9F9" stop-opacity="0"/>
</linearGradient>
<linearGradient id="paint27_linear" x1="1964.48" y1="712.868" x2="2082.73" y2="712.868" gradientUnits="userSpaceOnUse">
<stop stop-color="#F9F9F9"/>
<stop offset="1" stop-color="#F9F9F9" stop-opacity="0"/>
</linearGradient>
<linearGradient id="paint28_linear" x1="386.495" y1="989.502" x2="194.196" y2="989.502" gradientUnits="userSpaceOnUse">
<stop stop-color="#F9F9F9"/>
<stop offset="1" stop-color="#F9F9F9" stop-opacity="0"/>
</linearGradient>
<linearGradient id="paint29_linear" x1="193.284" y1="390.503" x2="9.73257" y2="390.503" gradientUnits="userSpaceOnUse">
<stop stop-color="#F9F9F9"/>
<stop offset="1" stop-color="#F9F9F9" stop-opacity="0"/>
</linearGradient>
</defs>
</svg>
