<svg width="43" height="47" viewBox="0 0 43 47" fill="none" xmlns="http://www.w3.org/2000/svg">
<path d="M42.0018 29.9515L34.9411 17.8188L26.1083 2.63953C24.0603 -0.879844 18.94 -0.879844 16.892 2.63953L8.05873 17.8188L0.99806 29.9515C-1.83772 34.8244 1.707 40.916 7.37857 40.916H9.03425C13.303 40.916 17.3401 42.8402 20.0081 46.1456C20.6714 47.2848 22.3289 47.2848 22.9922 46.1456C25.6597 42.8402 29.6977 40.916 33.9656 40.916H35.6213C41.2928 40.916 44.838 34.8244 42.0018 29.9515ZM18.9976 39.1447L5.5462 35.1842C5.37218 35.1332 5.29822 34.9865 5.30752 34.8451C5.29513 34.6693 5.41557 34.4839 5.64185 34.4839H17.3773C17.5115 34.4839 17.6328 34.5635 17.686 34.6856L19.4014 38.6465C19.424 38.6992 19.432 38.7524 19.428 38.8024C19.4439 39.0221 19.2318 39.2136 18.9976 39.1447ZM21.7027 38.9079C21.6146 39.0968 21.3848 39.0968 21.2967 38.9079L18.6531 33.2328C18.6105 33.1414 18.6105 33.0307 18.6531 32.9397L21.2967 27.2646C21.3848 27.0757 21.6146 27.0757 21.7027 27.2646L24.3463 32.9397C24.3888 33.0307 24.3888 33.1414 24.3463 33.2328L21.7027 38.9079ZM37.516 35.1842L24.0656 39.1447C23.7928 39.2251 23.5492 38.9531 23.6613 38.6939L25.3772 34.7335C25.4294 34.6113 25.5512 34.5318 25.6854 34.5318H37.4208C37.8083 34.5318 37.8876 35.0748 37.516 35.1842ZM37.2831 33.1858H26.6959C26.3412 33.1858 26.0175 32.9876 25.8652 32.677L22.2425 24.453C21.9511 23.8586 21.0487 23.8586 20.7573 24.453L17.1342 32.677C16.9819 32.9876 16.6586 33.1858 16.3035 33.1858H5.7158C5.00818 33.1858 4.56581 32.4442 4.91962 31.8502L20.7037 5.3756C21.0513 4.79219 21.948 4.79219 22.2961 5.3756L38.0798 31.8502C38.4336 32.4442 37.9916 33.1858 37.2831 33.1858Z" fill="white"/>
</svg>
