<svg width="34" height="40" viewBox="0 0 34 40" fill="none" xmlns="http://www.w3.org/2000/svg">
<g clip-path="url(#clip0)">
<path d="M34.0467 24.2705L30.233 21.2553C30.3067 20.6724 30.3596 20.0801 30.3596 19.4782C30.3596 18.8763 30.3067 18.2858 30.233 17.7029L34.0561 14.6839C34.3999 14.4115 34.4981 13.92 34.2734 13.52L30.658 7.20575C30.4332 6.81337 29.9629 6.64957 29.5568 6.81338L25.0575 8.64577C24.1262 7.92577 23.1043 7.31431 22.0012 6.85145L21.325 2.02293C21.2438 1.59246 20.8736 1.2572 20.4221 1.2572H13.1933C12.7419 1.2572 12.3698 1.59436 12.298 2.02293L11.6199 6.85145C10.5187 7.31431 9.49678 7.91815 8.56745 8.64577L4.06624 6.81338C3.66012 6.65909 3.19169 6.81337 2.96503 7.20575L-0.650309 13.52C-0.875087 13.9124 -0.776883 14.4039 -0.433105 14.6839L3.38056 17.7029C3.30878 18.2858 3.25403 18.8744 3.25403 19.4782C3.25403 20.0782 3.30878 20.6724 3.38056 21.2553L-0.433105 24.2705C-0.776883 24.5467 -0.875087 25.0363 -0.650309 25.4382L2.96503 31.7505C3.19169 32.1429 3.66012 32.3086 4.06624 32.1429L8.56745 30.3105C9.49678 31.0305 10.5187 31.642 11.6199 32.1048L12.298 36.9353C12.3698 37.3638 12.7419 37.701 13.1933 37.701H20.4221C20.8736 37.701 21.2438 37.3619 21.3156 36.9353L21.9937 32.1048C23.0968 31.642 24.1168 31.0381 25.048 30.3105L29.5474 32.1429C29.9535 32.2972 30.4238 32.1429 30.6505 31.7505L34.2639 25.4382C34.4906 25.0458 34.3904 24.5543 34.0467 24.2705ZM16.8068 25.8572C13.3104 25.8572 10.4828 23.0039 10.4828 19.4782C10.4828 15.9506 13.3104 13.101 16.8068 13.101C20.305 13.101 23.1327 15.9506 23.1327 19.4782C23.1327 23.0058 20.305 25.8572 16.8068 25.8572Z" fill="white"/>
</g>
<defs>
<clipPath id="clip0">
<rect width="34" height="40" fill="white"/>
</clipPath>
</defs>
</svg>
