<svg width="19" height="20" viewBox="0 0 19 20" fill="none" xmlns="http://www.w3.org/2000/svg">
<g clip-path="url(#clip0)">
<path d="M9.38458 13.0478L7.88089 16.3648C7.85644 16.4183 7.85644 16.4828 7.88089 16.5363L9.38458 19.8533C9.43492 19.9633 9.56508 19.9633 9.61542 19.8533L11.1191 16.5363C11.1436 16.4828 11.1436 16.4183 11.1191 16.3648L9.61542 13.0478C9.56508 12.9378 9.4342 12.9378 9.38458 13.0478Z" fill="#9E69F3"/>
<path d="M18.9285 15.7287L9.95235 0.256189C9.75459 -0.0847452 9.24473 -0.0847452 9.04697 0.256189L0.0701349 15.7287C-0.13122 16.0755 0.120474 16.5096 0.523184 16.5096H6.54442C6.74649 16.5096 6.93059 16.3937 7.01688 16.2126L9.07718 11.4058C9.24257 11.0583 9.75603 11.0583 9.92143 11.4058L11.9817 16.2126C12.068 16.3945 12.2521 16.5096 12.4542 16.5096H18.4754C18.8781 16.5096 19.1298 16.0755 18.9285 15.7287Z" fill="#9E69F3"/>
<path d="M18.5541 17.2954H11.8799C11.8037 17.2954 11.7347 17.3416 11.7045 17.4135L10.7286 19.7281C10.6646 19.8799 10.8034 20.0383 10.9587 19.9914L18.6081 17.6767C18.8195 17.6129 18.7742 17.2954 18.5541 17.2954Z" fill="#9E69F3"/>
<path d="M0.481713 17.2676H7.15519C7.23142 17.2676 7.30046 17.3138 7.33066 17.3856L8.30651 19.7003C8.37051 19.8521 8.23172 20.0104 8.07639 19.9635L0.427059 17.6488C0.215636 17.5851 0.260941 17.2676 0.481713 17.2676Z" fill="#9E69F3"/>
<path d="M0.481713 17.2954H7.15519C7.23142 17.2954 7.30046 17.3416 7.33066 17.4135L8.30651 19.7281C8.37051 19.8799 8.23172 20.0383 8.07639 19.9914L0.427059 17.6767C0.215636 17.6129 0.260941 17.2954 0.481713 17.2954Z" fill="#9E69F3"/>
</g>
<defs>
<clipPath id="clip0">
<rect width="19" height="20" fill="white"/>
</clipPath>
</defs>
</svg>
