<svg width="288" height="90" viewBox="0 0 288 90" fill="none" xmlns="http://www.w3.org/2000/svg">
<path d="M287.168 46.3775C287.169 43.0613 286.509 39.7782 285.227 36.7197C283.946 33.6612 282.068 30.8885 279.703 28.5635C277.338 26.2384 274.534 24.4075 271.455 23.1776C268.375 21.9476 265.081 21.3432 261.766 21.3996C248.073 21.6293 237.218 33.0874 237.218 46.7853V64.6242C237.218 66.5029 237.964 68.3047 239.292 69.6336C240.62 70.9626 242.421 71.71 244.3 71.7115C246.179 71.71 247.981 70.9628 249.31 69.634C250.639 68.3052 251.386 66.5034 251.387 64.6242V46.636C251.387 40.772 255.942 35.781 261.8 35.5742C263.251 35.5218 264.699 35.7623 266.055 36.2816C267.412 36.8009 268.649 37.5883 269.695 38.5967C270.74 39.605 271.572 40.8138 272.139 42.1506C272.707 43.4875 273 44.9251 273 46.3775V64.6242C273 66.5039 273.746 68.3065 275.075 69.6357C276.405 70.9648 278.207 71.7115 280.087 71.7115C281.966 71.71 283.767 70.9626 285.095 69.6336C286.423 68.3047 287.168 66.5029 287.168 64.6242V46.3775Z" fill="#0A0A44"/>
<path d="M187.383 68.3978C183.45 66.3787 180.156 63.3041 177.872 59.5186C175.626 55.5927 174.444 51.148 174.444 46.6247C174.444 42.1015 175.626 37.6567 177.872 33.7309C180.156 29.9436 183.449 26.8671 187.383 24.8459C191.635 22.6688 196.357 21.5702 201.133 21.6468C205.895 21.5652 210.603 22.6643 214.837 24.8459C218.756 26.8782 222.034 29.9579 224.307 33.7423C226.551 37.6693 227.731 42.1136 227.731 46.6362C227.731 51.1588 226.551 55.6031 224.307 59.5301C222.032 63.3087 218.754 66.3824 214.837 68.4093C210.604 70.5934 205.895 71.6926 201.133 71.6084C196.355 71.6843 191.633 70.5816 187.383 68.3978ZM210.018 56.4057C212.315 53.9705 213.464 50.7159 213.464 46.6419C213.464 42.568 212.315 39.3134 210.018 36.8782C208.884 35.6657 207.506 34.7079 205.974 34.0682C204.442 33.4286 202.792 33.1218 201.133 33.168C199.473 33.1164 197.82 33.4143 196.282 34.0426C194.745 34.6709 193.357 35.6155 192.208 36.8151C189.864 39.2502 188.693 42.5048 188.693 46.5788C188.693 50.6527 189.864 53.9073 192.208 56.3425C193.356 57.5428 194.744 58.4882 196.282 59.1175C197.82 59.7468 199.472 60.0458 201.133 59.9953C202.783 60.0566 204.428 59.7685 205.959 59.1499C207.49 58.5312 208.873 57.5961 210.018 56.4057Z" fill="#0A0A44"/>
<path d="M71.9757 21.4512H71.97C68.059 21.4512 64.8884 24.6217 64.8884 28.5327V64.5149C64.8884 68.426 68.059 71.5965 71.97 71.5965H71.9757C75.8868 71.5965 79.0573 68.426 79.0573 64.5149V28.5327C79.0573 24.6217 75.8868 21.4512 71.9757 21.4512Z" fill="#0A0A44"/>
<path d="M71.9702 0.103516C69.6366 0.108079 67.4001 1.03832 65.7515 2.69008C64.103 4.34184 63.1771 6.58018 63.1771 8.91384V20.4006C63.1705 20.517 63.1885 20.6335 63.23 20.7424C63.2715 20.8513 63.3356 20.9503 63.418 21.0327C63.5004 21.1151 63.5994 21.1792 63.7083 21.2207C63.8173 21.2622 63.9337 21.2802 64.0501 21.2736C64.2072 21.2771 64.362 21.2364 64.4971 21.1562C64.6321 21.076 64.742 20.9594 64.814 20.8198C66.7036 18.4421 68.7367 17.7414 71.9875 17.7414C73.163 17.7714 74.3327 17.5658 75.4275 17.1367C76.5223 16.7076 77.5201 16.0636 78.3622 15.2428C79.2042 14.422 79.8734 13.4409 80.3304 12.3574C80.7873 11.2739 81.0227 10.1099 81.0227 8.93394C81.0227 7.75802 80.7873 6.59401 80.3304 5.5105C79.8734 4.42698 79.2042 3.44591 78.3622 2.62509C77.5201 1.80427 76.5223 1.16032 75.4275 0.731206C74.3327 0.302086 73.163 0.0964727 71.9875 0.126494L71.9702 0.103516Z" fill="#9E69F3"/>
<path d="M132.672 21.4512C133.602 21.4512 134.523 21.6345 135.383 21.9908C136.243 22.347 137.024 22.8691 137.681 23.5273C138.339 24.1855 138.86 24.9669 139.216 25.8267C139.571 26.6866 139.754 27.608 139.753 28.5385V63.4237C139.753 72.3833 137.485 78.5575 132.942 82.9167C128.399 87.2759 121.805 89.4526 113.144 89.4526C108.74 89.4793 104.353 88.8996 100.107 87.7296C98.4038 87.2553 96.7392 86.6524 95.1273 85.9262C94.4074 85.5923 93.764 85.1139 93.2369 84.5206C92.7099 83.9273 92.3106 83.232 92.0639 82.4778C91.8171 81.7235 91.7283 80.9266 91.8027 80.1366C91.8772 79.3466 92.1135 78.5803 92.4969 77.8855C93.2213 76.5961 94.4074 75.6292 95.8163 75.1794C97.2251 74.7297 98.7521 74.8306 100.09 75.4618C101.025 75.8878 101.984 76.2617 102.961 76.5817C105.878 77.5352 108.927 78.0179 111.996 78.0118C116.717 78.0118 120.163 76.9225 122.334 74.7439C124.51 72.5614 125.602 69.7242 125.602 65.2386V63.6075C123.769 65.4367 121.571 66.8594 119.152 67.7829C116.604 68.7647 113.893 69.2577 111.163 69.236C104.742 69.236 99.655 67.4039 95.9027 63.7396C92.1503 60.0753 90.2742 54.5808 90.2742 47.2561V28.5385C90.2734 27.608 90.456 26.6866 90.8116 25.8267C91.1671 24.9669 91.6886 24.1855 92.3463 23.5273C93.004 22.8691 93.7849 22.347 94.6444 21.9908C95.504 21.6345 96.4253 21.4512 97.3557 21.4512C98.2865 21.4512 99.2081 21.6345 100.068 21.9907C100.928 22.3468 101.709 22.8689 102.367 23.527C103.025 24.1851 103.547 24.9664 103.904 25.8263C104.26 26.6862 104.443 27.6078 104.443 28.5385V45.1943C104.443 53.1278 107.742 57.0926 114.339 57.0888C117.735 57.0888 120.461 55.9841 122.517 53.7748C124.574 51.5656 125.602 48.2804 125.602 43.9192V28.5385C125.6 26.6613 126.344 24.8604 127.67 23.5314C128.995 22.2024 130.795 21.4542 132.672 21.4512Z" fill="#0A0A44"/>
<path d="M158.052 21.4512H158.046C154.135 21.4512 150.964 24.6217 150.964 28.5327V64.5149C150.964 68.426 154.135 71.5965 158.046 71.5965H158.052C161.963 71.5965 165.133 68.426 165.133 64.5149V28.5327C165.133 24.6217 161.963 21.4512 158.052 21.4512Z" fill="#0A0A44"/>
<path d="M158.052 0.137695C160.388 0.137695 162.629 1.06592 164.281 2.71818C165.934 4.37044 166.862 6.61137 166.862 8.94802V20.4348C166.868 20.5509 166.849 20.667 166.807 20.7755C166.765 20.8841 166.701 20.9826 166.619 21.0649C166.537 21.1471 166.438 21.2112 166.33 21.253C166.221 21.2949 166.105 21.3135 165.989 21.3078C165.832 21.3091 165.677 21.2676 165.541 21.1876C165.406 21.1077 165.294 20.9924 165.219 20.854C163.336 18.4705 161.302 17.7756 158.052 17.7756C155.715 17.7756 153.474 16.8474 151.822 15.1951C150.17 13.5428 149.241 11.3019 149.241 8.96525C149.241 6.6286 150.17 4.38766 151.822 2.73541C153.474 1.08315 155.715 0.154925 158.052 0.154925V0.137695Z" fill="#9E69F3"/>
<path d="M49.4849 33.2202C47.4747 29.5592 44.4728 26.5394 40.8239 24.5075C37.0762 22.4238 32.8494 21.3547 28.5618 21.4061C21.9167 21.4061 16.8453 23.5196 13.3706 27.7238V27.6319C13.2289 25.9147 12.4308 24.3183 11.1423 23.1744C9.85376 22.0306 8.17395 21.4274 6.45212 21.4903C4.7303 21.5531 3.09895 22.2772 1.89728 23.512C0.695606 24.7468 0.0160844 26.3972 0 28.1201V82.4925C0 84.3509 0.738226 86.1331 2.05228 87.4472C3.36633 88.7612 5.14856 89.4994 7.00691 89.4994C8.86526 89.4994 10.6475 88.7612 11.9615 87.4472C13.2756 86.1331 14.0138 84.3509 14.0138 82.4925V72.1889C14.0174 71.6079 14.1679 71.0371 14.4513 70.5299C14.7347 70.0226 15.1417 69.5952 15.6346 69.2874C16.1275 68.9796 16.6902 68.8015 17.2704 68.7696C17.8506 68.7376 18.4294 68.8529 18.9531 69.1047C21.946 70.5357 25.2337 71.242 28.5503 71.1666C32.8379 71.2179 37.0647 70.1489 40.8124 68.0652C44.4613 66.0333 47.4632 63.0135 49.4734 59.3525C51.5716 55.6155 52.6207 51.2601 52.6207 46.2863C52.6207 41.3126 51.5754 36.9572 49.4849 33.2202ZM34.9828 56.0328C33.8487 57.2287 32.4742 58.171 30.9497 58.7976C29.4253 59.4242 27.7854 59.721 26.1381 59.6684C24.4898 59.7214 22.849 59.4249 21.3235 58.7983C19.7981 58.1717 18.4226 57.2292 17.2875 56.0328C14.9902 53.6015 13.8415 50.3469 13.8415 46.2691C13.8415 42.1913 14.9902 38.9367 17.2875 36.5054C18.4226 35.309 19.7981 34.3665 21.3235 33.7399C22.849 33.1133 24.4898 32.8168 26.1381 32.8698C27.7854 32.8172 29.4253 33.114 30.9497 33.7406C32.4742 34.3672 33.8487 35.3095 34.9828 36.5054C37.2802 38.9291 38.4289 42.1837 38.4289 46.2691C38.4289 50.3545 37.2802 53.6091 34.9828 56.0328Z" fill="#0A0A44"/>
</svg>
