<svg width="37" height="37" viewBox="0 0 37 37" fill="none" xmlns="http://www.w3.org/2000/svg">
<path d="M18.5 11C14.3566 11 11 14.3578 11 18.4992C11 22.6422 14.3566 26 18.5 26C22.6402 26 26 22.6422 26 18.4992C26 14.3578 22.6402 11 18.5 11ZM18.5 23.3721C15.8086 23.3721 13.6265 21.1903 13.6265 18.5008C13.6265 15.8097 15.8086 13.6295 18.5 13.6295C21.1914 13.6295 23.3702 15.8097 23.3702 18.5008C23.3702 21.1903 21.1914 23.3721 18.5 23.3721Z" fill="white"/>
<path d="M26.5 12C27.3284 12 28 11.3284 28 10.5C28 9.67157 27.3284 9 26.5 9C25.6716 9 25 9.67157 25 10.5C25 11.3284 25.6716 12 26.5 12Z" fill="white"/>
<path d="M33.2054 8.16633C32.424 6.15536 30.8331 4.5652 28.819 3.78842C27.6545 3.35096 26.4234 3.11643 25.1773 3.08982C23.573 3.01996 23.0649 3 18.9967 3C14.9285 3 14.407 3 12.8161 3.08982C11.5733 3.11477 10.3422 3.3493 9.1777 3.78842C7.16193 4.5652 5.57097 6.15536 4.79131 8.16633C4.35318 9.33067 4.11828 10.5582 4.09329 11.8024C4.02166 13.4025 4 13.9098 4 17.9734C4 22.0353 4 22.5526 4.09329 24.1444C4.11828 25.3886 4.35318 26.6161 4.79131 27.7821C5.57263 29.7914 7.16359 31.3816 9.17937 32.16C10.3388 32.6124 11.57 32.8686 12.8194 32.9085C14.4237 32.9784 14.9318 33 19 33C23.0682 33 23.5896 33 25.1806 32.9085C26.425 32.8836 27.6562 32.6474 28.8223 32.2116C30.8364 31.4315 32.4274 29.843 33.2087 27.832C33.6468 26.6677 33.8817 25.4401 33.9067 24.1959C33.9783 22.5958 34 22.0885 34 18.025C34 13.9614 34 13.4458 33.9067 11.854C33.8851 10.5931 33.6518 9.34398 33.2054 8.16633ZM31.1763 24.0213C31.1646 24.9794 30.9913 25.9291 30.6582 26.829C30.15 28.1381 29.1155 29.1727 27.8061 29.675C26.9148 30.006 25.9752 30.179 25.024 30.1923C23.4414 30.2655 22.9949 30.2838 18.9367 30.2838C14.8752 30.2838 14.4604 30.2838 12.8477 30.1923C11.8998 30.1806 10.9569 30.006 10.0673 29.675C8.75289 29.1743 7.71168 28.1397 7.20358 26.829C6.87706 25.9408 6.70047 25.001 6.68547 24.0529C6.61384 22.4727 6.59718 22.0269 6.59718 17.9751C6.59718 13.9215 6.59718 13.5073 6.68547 11.8955C6.69713 10.9375 6.87039 9.98935 7.20358 9.08949C7.71168 7.77711 8.75289 6.74418 10.0673 6.24185C10.9569 5.91251 11.8998 5.73786 12.8477 5.72455C14.432 5.65303 14.8768 5.63307 18.9367 5.63307C22.9966 5.63307 23.413 5.63307 25.024 5.72455C25.9752 5.73619 26.9148 5.91084 27.8061 6.24185C29.1155 6.74584 30.15 7.78044 30.6582 9.08949C30.9847 9.97771 31.1613 10.9175 31.1763 11.8656C31.2479 13.4474 31.2662 13.8916 31.2662 17.9451C31.2662 21.997 31.2662 22.4328 31.1946 24.023H31.1763V24.0213Z" fill="white"/>
</svg>
