<svg width="38" height="37" viewBox="0 0 38 37" fill="none" xmlns="http://www.w3.org/2000/svg">
<path d="M18.5 3C9.9533 3 3 9.9533 3 18.5C3 27.0467 9.9533 34 18.5 34C27.0467 34 34 27.0467 34 18.5C34 9.9533 27.0467 3 18.5 3ZM30.793 16.95H26.5088C26.329 13.5942 25.3773 10.285 23.7312 7.27335C27.5101 9.0419 30.2521 12.6534 30.793 16.95ZM19.3215 6.14185C20.9257 8.25605 23.0833 12.0008 23.3933 16.95H13.8965C14.1119 12.9262 15.4372 9.1566 17.6955 6.1403C17.9621 6.1248 18.2287 6.1 18.5 6.1C18.7774 6.1 19.0487 6.1248 19.3215 6.14185ZM13.3664 7.22685C11.8412 10.1579 10.9608 13.4811 10.7965 16.95H6.20695C6.75255 12.6162 9.53635 8.97835 13.3664 7.22685ZM6.20695 20.05H10.8167C11.0275 23.7374 11.8474 26.9909 13.2284 29.7065C9.4697 27.9302 6.7448 24.3311 6.20695 20.05ZM17.6475 30.8581C15.4759 28.2262 14.1941 24.5388 13.9136 20.05H23.3887C23.0663 24.3481 21.6573 28.1038 19.354 30.8566C19.0719 30.8752 18.7898 30.9 18.5 30.9C18.2117 30.9 17.9311 30.8752 17.6475 30.8581ZM23.8646 29.6615C25.3448 26.8808 26.2484 23.615 26.4856 20.05H30.7915C30.2598 24.2954 27.5737 27.8728 23.8646 29.6615Z" fill="white"/>
</svg>
