<svg width="42" height="42" viewBox="0 0 42 42" fill="none" xmlns="http://www.w3.org/2000/svg">
<path d="M21 0C9.4206 0 0 9.4206 0 21C0 32.5794 9.4206 42 21 42C32.5794 42 42 32.5794 42 21C42 9.4206 32.5794 0 21 0ZM21 37.8C11.7369 37.8 4.2 30.2631 4.2 21C4.2 11.7369 11.7369 4.2 21 4.2C30.2631 4.2 37.8 11.7369 37.8 21C37.8 30.2631 30.2631 37.8 21 37.8Z" fill="#7B7B7B"/>
<path d="M15.3154 11.9847L24.3307 21L15.3154 30.0153L18.2848 32.9847L30.2695 21L18.2848 9.01526L15.3154 11.9847Z" fill="#7B7B7B"/>
</svg>
