<svg width="40" height="40" viewBox="0 0 40 40" fill="none" xmlns="http://www.w3.org/2000/svg">
<path d="M31.0301 12.4367L10.6717 3.475C10.2634 3.295 9.80342 3.28834 9.38842 3.44834C8.97508 3.61334 8.64342 3.93334 8.46842 4.34334L3.46842 16.01C3.10508 16.855 3.49842 17.835 4.34342 18.1983L15.9384 23.1667L13.8717 28.3333H6.66675V23.3333H3.33342V30V36.6667H6.66675V31.6667H13.8717C15.2434 31.6667 16.4584 30.8433 16.9651 29.57L19.0017 24.48L24.7001 26.9217C25.5434 27.2833 26.5184 26.8967 26.8851 26.0583L31.8851 14.63C32.2534 13.7867 31.8701 12.8083 31.0301 12.4367Z" fill="#839ec7"/>
<path d="M33.2153 27.2863L30.12 26.0493L33.4504 17.7151L36.5457 18.952L33.2153 27.2863Z" fill="#839ec7"/>
</svg>
