<svg width="39" height="34" viewBox="0 0 39 34" fill="none" xmlns="http://www.w3.org/2000/svg">
<path d="M6.5 27H8.125H9.75V33.1215L18.0391 27H19.5H26C27.7924 27 29.25 25.6545 29.25 24V12C29.25 10.3455 27.7924 9 26 9H6.5C4.70762 9 3.25 10.3455 3.25 12V24C3.25 25.6545 4.70762 27 6.5 27Z" fill="#839ec7"/>
<path d="M32.5 3H30.875H27.6218H14.625H13C11.2076 3 9.75 4.3455 9.75 6H14.625H26.9523H29.25C31.0424 6 32.5 7.3455 32.5 9V11.121V16.5V21C34.2924 21 35.75 19.6545 35.75 18V16.5V10.5V7.5V6C35.75 4.3455 34.2924 3 32.5 3Z" fill="#839ec7"/>
</svg>
