<svg width="41" height="38" viewBox="0 0 41 38" fill="none" xmlns="http://www.w3.org/2000/svg">
<path d="M19.0975 26.9167C22.8661 26.9167 25.9308 23.8519 25.9308 20.0833C25.9308 16.3147 22.8661 13.25 19.0975 13.25C15.3289 13.25 12.2642 16.3147 12.2642 20.0833C12.2642 23.8519 15.3289 26.9167 19.0975 26.9167ZM19.0975 16.6667C20.9493 16.6667 22.5142 18.2315 22.5142 20.0833C22.5142 21.9352 20.9493 23.5 19.0975 23.5C17.2457 23.5 15.6808 21.9352 15.6808 20.0833C15.6808 18.2315 17.2457 16.6667 19.0975 16.6667Z" fill="#839ec7"/>
<path d="M3.45797 27.149L5.1663 30.1044C6.07342 31.671 8.25667 32.2586 9.83005 31.3515L10.7338 30.8288C11.728 31.6095 12.8196 32.2501 13.9728 32.7284V33.75C13.9728 35.6343 15.5051 37.1667 17.3894 37.1667H20.8061C22.6904 37.1667 24.2228 35.6343 24.2228 33.75V32.7284C25.3759 32.2501 26.4675 31.6095 27.4618 30.8305L28.3655 31.3532C29.9423 32.2586 32.1204 31.6744 33.0309 30.1044L34.7375 27.1507C35.6805 25.5193 35.1202 23.4248 33.4888 22.4835L32.626 21.9847C32.7183 21.3509 32.7644 20.7171 32.7644 20.0833C32.7644 19.4495 32.7183 18.814 32.626 18.1854L33.4888 17.6865C35.1202 16.7435 35.6805 14.6508 34.7375 13.0194L33.0309 10.0657C32.1238 8.494 29.9423 7.90463 28.3655 8.81517L27.4618 9.33792C26.4675 8.55721 25.3759 7.91658 24.2228 7.43825V6.41667C24.2228 4.53238 22.6904 3 20.8061 3H17.3894C15.5051 3 13.9728 4.53238 13.9728 6.41667V7.43825C12.8196 7.91658 11.728 8.55721 10.7338 9.33621L9.83005 8.81346C8.25155 7.90633 6.07172 8.494 5.16459 10.064L3.45797 13.0177C2.51497 14.6491 3.0753 16.7435 4.70676 17.6848L5.56947 18.1837C5.47722 18.814 5.43109 19.4495 5.43109 20.0833C5.43109 20.7171 5.47722 21.3509 5.56947 21.9813L4.70676 22.4801C3.0753 23.4231 2.51497 25.5175 3.45797 27.149ZM9.13988 22.4374C8.94684 21.6635 8.84776 20.8709 8.84776 20.0833C8.84776 19.2941 8.94684 18.5014 9.13817 17.7293C9.32267 16.9895 8.99638 16.2174 8.33526 15.8364L6.4168 14.726L8.12172 11.7723L10.0778 12.9032C10.7338 13.2808 11.5589 13.1851 12.1073 12.6606C13.274 11.5553 14.6817 10.7285 16.1799 10.2707C16.8991 10.052 17.3894 9.38746 17.3894 8.6375V6.41667H20.8061V8.6375C20.8061 9.38746 21.2964 10.052 22.0156 10.2707C23.5138 10.7302 24.9215 11.5553 26.0883 12.6606C26.6366 13.1851 27.4652 13.279 28.1178 12.9032L30.0721 11.774L31.7804 14.7277L29.8603 15.8364C29.1991 16.2191 28.8728 16.9913 29.0573 17.7293C29.2487 18.5014 29.3478 19.2941 29.3478 20.0833C29.3478 20.8709 29.2487 21.6635 29.0556 22.4374C28.8728 23.1771 29.1991 23.9493 29.8603 24.3303L31.7787 25.439L30.0738 28.3927L28.1178 27.2635C27.4635 26.8859 26.6366 26.9799 26.0883 27.506C24.9215 28.6113 23.5138 29.4382 22.0156 29.896C21.2964 30.1147 20.8061 30.7792 20.8061 31.5292L20.8095 33.75H17.3894V31.5292C17.3894 30.7792 16.8991 30.1147 16.1799 29.896C14.6817 29.4365 13.274 28.6113 12.1073 27.506C11.7827 27.1951 11.359 27.0363 10.9319 27.0363C10.6381 27.0363 10.3443 27.1114 10.0778 27.2652L8.12342 28.3961L6.41509 25.4424L8.33526 24.3303C8.99638 23.9493 9.32267 23.1771 9.13988 22.4374Z" fill="#839ec7"/>
</svg>
