<svg width="41" height="40" viewBox="0 0 41 40" fill="none" xmlns="http://www.w3.org/2000/svg">
<path d="M19.4947 9.6665C15.9171 9.6665 13.0059 12.6082 13.0059 16.2232H16.3047C16.3047 14.4448 17.7364 12.9998 19.4947 12.9998C21.253 12.9998 22.6847 14.4448 22.6847 16.2232C22.6847 17.2198 21.8913 17.9432 20.679 18.9332C20.2584 19.2782 19.8609 19.6065 19.5392 19.9315C17.8931 21.5932 17.8453 23.3582 17.8453 23.5548V24.6665H21.1441L21.1425 23.6115C21.1441 23.5848 21.1969 22.9682 21.8699 22.2898C22.1173 22.0398 22.429 21.7898 22.7523 21.5265C24.0372 20.4748 25.9819 18.8865 25.9819 16.2232C25.9835 12.6082 23.0723 9.6665 19.4947 9.6665ZM17.8453 26.3332H21.1441V29.6665H17.8453V26.3332Z" fill="#839ec7"/>
<path d="M19.4943 3C10.3993 3 3 10.4767 3 19.6667C3 28.8567 10.3993 36.3333 19.4943 36.3333C28.5892 36.3333 35.9885 28.8567 35.9885 19.6667C35.9885 10.4767 28.5892 3 19.4943 3ZM19.4943 33C12.2186 33 6.29885 27.0183 6.29885 19.6667C6.29885 12.315 12.2186 6.33333 19.4943 6.33333C26.7699 6.33333 32.6897 12.315 32.6897 19.6667C32.6897 27.0183 26.7699 33 19.4943 33Z" fill="#839ec7"/>
</svg>
