<svg width="40" height="33" viewBox="0 0 40 33" fill="none" xmlns="http://www.w3.org/2000/svg">
<path d="M7.50016 14.2533C7.50016 17.5783 10.0085 20.0866 13.3335 20.0866C16.6585 20.0866 19.1668 17.5783 19.1668 14.2533C19.1668 10.9283 16.6585 8.41992 13.3335 8.41992C10.0085 8.41992 7.50016 10.9283 7.50016 14.2533ZM31.6668 13.3333H28.3335V18.3333H23.3335V21.6666H28.3335V26.6666H31.6668V21.6666H36.6668V18.3333H31.6668V13.3333ZM6.66683 31.6666H20.0002H21.6668H23.3335V29.9999C23.3335 25.4049 19.5952 21.6666 15.0002 21.6666H11.6668C7.07183 21.6666 3.3335 25.4049 3.3335 29.9999V31.6666H5.00016H6.66683Z" fill="#839ec7"/>
</svg>
