<svg width="347" height="341" viewBox="0 0 347 341" fill="none" xmlns="http://www.w3.org/2000/svg">
<path d="M173.5 2.58337C80.9107 2.58337 5.58325 77.9108 5.58325 170.5C5.58325 263.089 80.9107 338.417 173.5 338.417C266.089 338.417 341.417 263.089 341.417 170.5C341.417 77.9108 266.089 2.58337 173.5 2.58337ZM173.5 304.833C99.4319 304.833 39.1666 244.568 39.1666 170.5C39.1666 96.432 99.4319 36.1667 173.5 36.1667C247.568 36.1667 307.833 96.432 307.833 170.5C307.833 244.568 247.568 304.833 173.5 304.833Z" fill="#555555"/>
<path d="M190.292 86.5416H156.708V187.292H257.458V153.708H190.292V86.5416Z" fill="#555555"/>
</svg>
