<svg width="458" height="515" viewBox="0 0 458 515" fill="none" xmlns="http://www.w3.org/2000/svg">
<g clip-path="url(#clip0)">
<path d="M415.363 188.21C421.02 181.744 416.428 171.625 407.837 171.625H324.374C319.404 171.625 315.374 167.596 315.374 162.625V9.875C315.374 4.35215 310.897 -0.125 305.374 -0.125H153.624C148.102 -0.125 143.624 4.35215 143.624 9.875V162.625C143.624 167.596 139.595 171.625 134.624 171.625H51.1622C42.5706 171.625 37.9788 181.744 43.6364 188.21L211.438 379.983C221 390.911 237.999 390.911 247.561 379.983L415.363 188.21ZM0.499512 467.875C0.499512 462.352 4.97666 457.875 10.4995 457.875H448.499C454.022 457.875 458.499 462.352 458.499 467.875V505.125C458.499 510.648 454.022 515.125 448.499 515.125H10.4995C4.97667 515.125 0.499512 510.648 0.499512 505.125V467.875Z" fill="#CF5252"/>
</g>
<defs>
<clipPath id="clip0">
<rect width="458" height="515" fill="white"/>
</clipPath>
</defs>
</svg>
