<svg width="226" height="297" viewBox="0 0 226 297" fill="none" xmlns="http://www.w3.org/2000/svg">
<g clip-path="url(#clip0)">
<path d="M60.4272 188.366C57.8359 188.366 56.0896 188.633 55.1882 188.901V206.424C56.2586 206.692 57.5965 206.766 59.4414 206.766C66.1873 206.766 70.3419 203.166 70.3419 197.082C70.3419 191.638 66.7647 188.366 60.4272 188.366V188.366ZM109.536 188.544C106.719 188.544 104.888 188.812 103.804 189.08V227.903C104.888 228.171 106.635 228.171 108.212 228.171C119.718 228.26 127.21 221.567 127.21 207.406C127.295 195.059 120.464 188.544 109.536 188.544V188.544Z" fill="#CF5252"/>
<path d="M141.167 -0.25H28.4999C21.0297 -0.25 13.8653 2.88436 8.58307 8.46357C3.3008 14.0428 0.333252 21.6098 0.333252 29.5V267.5C0.333252 275.39 3.3008 282.957 8.58307 288.536C13.8653 294.116 21.0297 297.25 28.4999 297.25H197.5C204.97 297.25 212.134 294.116 217.417 288.536C222.699 282.957 225.667 275.39 225.667 267.5V89L141.167 -0.25ZM77.7634 210.826C73.4117 215.14 66.9897 217.074 59.5114 217.074C58.0614 217.09 56.612 217.001 55.1737 216.806V238.018H42.5832V179.47C48.2652 178.575 54.0065 178.167 59.7508 178.25C67.5952 178.25 73.1722 179.827 76.9325 182.995C80.5097 186 82.932 190.923 82.932 196.725C82.9179 202.556 81.0871 207.479 77.7634 210.826V210.826ZM131.379 230.982C125.464 236.173 116.464 238.642 105.465 238.642C98.8743 238.642 94.2127 238.196 91.044 237.75V179.485C96.728 178.608 102.468 178.196 108.212 178.25C118.873 178.25 125.802 180.273 131.21 184.587C137.054 189.168 140.716 196.472 140.716 206.959C140.716 218.308 136.787 226.148 131.379 230.982V230.982ZM183.417 189.704H161.841V203.255H182.008V214.173H161.841V238.033H149.081V178.696H183.417V189.704ZM141.167 103.875H127.083V29.5L197.5 103.875H141.167Z" fill="#CF5252"/>
</g>
<defs>
<clipPath id="clip0">
<rect width="226" height="297" fill="white"/>
</clipPath>
</defs>
</svg>
