<svg width="28" height="27" viewBox="0 0 28 27" fill="none" xmlns="http://www.w3.org/2000/svg">
<path d="M8.79894 19.0578C11.5221 19.0578 13.802 17.1292 14.3243 14.5752H16.6955V16.8165H18.9516V14.5752H21.2078V17.9372H23.4639V14.5752H24.592V12.3339H14.3243C13.802 9.77991 11.5221 7.85126 8.79894 7.85126C5.68884 7.85126 3.15857 10.3649 3.15857 13.4546C3.15857 16.5442 5.68884 19.0578 8.79894 19.0578ZM8.79894 10.0926C10.6648 10.0926 12.1832 11.601 12.1832 13.4546C12.1832 15.3081 10.6648 16.8165 8.79894 16.8165C6.93311 16.8165 5.41472 15.3081 5.41472 13.4546C5.41472 11.601 6.93311 10.0926 8.79894 10.0926Z" fill="#0F002E"/>
</svg>
