<svg width="37" height="37" viewBox="0 0 37 37" fill="none" xmlns="http://www.w3.org/2000/svg">
<path d="M18.0045 3C9.73095 3 3.00302 9.7259 3.00001 17.997C2.997 20.8283 3.79241 23.5874 5.29287 25.9759L5.64839 26.5422L4.13288 32.0753L9.8123 30.5873L10.3576 30.9126C12.6656 32.2801 15.3019 33 17.9955 33H17.9985C26.266 33 32.994 26.2741 33 18.006C33.003 13.997 31.4423 10.2289 28.6131 7.39759C25.7749 4.56024 22.0087 3 18.0045 3ZM26.8264 24.4398C26.4498 25.494 24.6481 26.4518 23.7834 26.5813C23.006 26.6988 22.0208 26.747 20.9421 26.4036C20.2883 26.1988 19.4507 25.9187 18.3721 25.4548C13.8466 23.503 10.8939 18.9518 10.665 18.6476C10.442 18.3464 8.82706 16.2018 8.82706 13.9849C8.82706 11.7651 9.99006 10.6747 10.4028 10.2229C10.8186 9.7741 11.3037 9.66265 11.608 9.66265C11.9093 9.66265 12.2076 9.66566 12.4727 9.67771C12.7499 9.68976 13.1205 9.57229 13.4851 10.4518C13.8617 11.3554 14.7656 13.5723 14.8771 13.7982C14.9886 14.0211 15.0639 14.2861 14.9162 14.5873C14.7656 14.8916 14.6933 15.0753 14.4643 15.3404C14.2413 15.6054 13.9913 15.9277 13.7894 16.1325C13.5634 16.3554 13.3284 16.5994 13.5905 17.0512C13.8557 17.5 14.7596 18.9789 16.0973 20.1747C17.8207 21.7108 19.276 22.1837 19.7249 22.4127C20.1769 22.6355 20.439 22.6024 20.7041 22.2982C20.9663 21.994 21.831 20.9819 22.1323 20.5331C22.4336 20.0813 22.7318 20.1566 23.1476 20.3042C23.5604 20.4578 25.7779 21.5452 26.2269 21.7711C26.6728 21.994 26.9771 22.1084 27.0916 22.2982C27.2001 22.4849 27.2001 23.3855 26.8264 24.4398Z" fill="#000"/>
</svg>
