<svg width="24" height="24" viewBox="0 0 24 24" fill="none" xmlns="http://www.w3.org/2000/svg">
<g clip-path="url(#clip0)">
<path d="M2.56235 7.04642C3.25255 5.60812 4.22774 4.39247 5.45675 3.38166C7.12215 2.0057 9.03245 1.17746 11.1743 0.923642C13.6902 0.625296 16.0547 1.10176 18.2411 2.41092C18.7844 2.73598 19.292 3.10558 19.7774 3.50634C19.8976 3.60431 19.8842 3.66219 19.7818 3.76016C18.7888 4.74871 17.7958 5.73726 16.8117 6.73471C16.6959 6.85049 16.6336 6.84158 16.5089 6.74807C13.6234 4.52606 9.4154 5.12721 7.26464 8.06614C6.88614 8.58268 6.57889 9.1393 6.36515 9.74489C6.34734 9.79833 6.31171 9.84731 6.28499 9.90075C5.71057 9.46436 5.13169 9.02797 4.56171 8.58713C3.89377 8.07505 3.22583 7.56296 2.56235 7.04642Z" fill="#E94335"/>
<path d="M6.28499 14.0776C6.47647 14.5006 6.63677 14.9414 6.87723 15.3378C7.88805 16.9942 9.3308 18.0585 11.2322 18.437C12.9466 18.7799 14.5942 18.5483 16.1304 17.6889C16.1839 17.6622 16.2373 17.6355 16.2863 17.6087C16.313 17.6355 16.3353 17.6666 16.362 17.6889C17.5108 18.5795 18.6641 19.4701 19.813 20.3607C19.2608 20.9084 18.633 21.3492 17.965 21.7322C16.028 22.8365 13.9307 23.2818 11.722 23.1126C8.97011 22.8988 6.5967 21.8123 4.63741 19.853C3.77799 18.9936 3.06998 18.0229 2.55789 16.9141C3.03436 16.549 3.51082 16.1883 3.98728 15.8231C4.75319 15.2398 5.51909 14.6609 6.28499 14.0776Z" fill="#34A853"/>
<path d="M19.8174 20.3606C18.6686 19.4701 17.5153 18.5795 16.3664 17.6889C16.3397 17.6666 16.313 17.6355 16.2907 17.6087C16.687 17.3015 17.0922 17.0031 17.4173 16.6113C17.9606 15.9612 18.3212 15.2264 18.5083 14.4026C18.5305 14.3002 18.5127 14.2646 18.4103 14.269C18.3569 14.2735 18.3079 14.269 18.2545 14.269C16.4377 14.269 14.6164 14.2646 12.7996 14.2735C12.5992 14.2735 12.5547 14.2201 12.5592 14.0286C12.5681 12.7372 12.5681 11.4459 12.5592 10.1545C12.5592 9.98978 12.6037 9.94525 12.7685 9.94525C16.0992 9.9497 19.43 9.9497 22.7653 9.94525C22.9078 9.94525 22.9656 9.98087 23.0013 10.1323C23.2729 11.3568 23.2551 12.5858 23.0903 13.8238C22.9567 14.8123 22.7163 15.7697 22.3467 16.6959C21.799 18.0629 20.993 19.2563 19.9332 20.2805C19.8931 20.3117 19.8531 20.3339 19.8174 20.3606Z" fill="#4285F3"/>
<path d="M6.28498 14.0776C5.51908 14.661 4.75318 15.2398 3.98727 15.8232C3.51081 16.1839 3.03435 16.549 2.55788 16.9141C2.18829 16.2284 1.94783 15.5026 1.7519 14.7545C1.37786 13.3073 1.31997 11.8378 1.52481 10.3639C1.68511 9.20612 2.01908 8.09289 2.55788 7.0509C3.22582 7.56299 3.88931 8.07953 4.55725 8.59162C5.13168 9.03246 5.7061 9.46884 6.28053 9.90523C6.18257 10.3817 6.04453 10.8492 6 11.3391C5.91984 12.2297 6.00445 13.098 6.25827 13.9529C6.27608 13.9886 6.28053 14.0331 6.28498 14.0776Z" fill="#FABB06"/>
</g>
<defs>
<clipPath id="clip0">
<rect width="22.799" height="22.799" fill="white" transform="translate(0.674286 0.549622)"/>
</clipPath>
</defs>
</svg>
