<svg width="333" height="318" viewBox="0 0 333 318" fill="none" xmlns="http://www.w3.org/2000/svg">
<g clip-path="url(#clip0)">
<path d="M148.726 121.917H184.309V210.875H148.726V121.917ZM148.708 228.667H184.292V264.25H148.708V228.667Z" fill="#ffffff"/>
<path d="M197.955 18.7241C191.763 7.07055 179.701 -0.170654 166.499 -0.170654C153.298 -0.170654 141.235 7.07056 135.043 18.7419L4.48822 265.388C1.59116 270.804 0.156097 276.882 0.324576 283.022C0.493055 289.162 2.25926 295.152 5.44896 300.402C8.59273 305.675 13.0574 310.037 18.4022 313.057C23.747 316.077 29.787 317.652 35.9261 317.624H297.072C309.669 317.624 321.073 311.184 327.567 300.402C330.752 295.151 332.515 289.161 332.683 283.022C332.852 276.883 331.42 270.806 328.528 265.388L197.955 18.7241ZM35.9261 282.041L166.499 35.3949L297.161 282.041H35.9261Z" fill="#ffffff"/>
</g>
<defs>
<clipPath id="clip0">
<rect width="333" height="318" fill="white"/>
</clipPath>
</defs>
</svg>
