<svg width="24" height="19" viewBox="0 0 24 19" fill="none" xmlns="http://www.w3.org/2000/svg">
<path d="M11.9328 7.38885C10.7687 7.38885 9.8219 8.33564 9.8219 9.49976C9.8219 10.6639 10.7687 11.6107 11.9328 11.6107C13.0969 11.6107 14.0437 10.6639 14.0437 9.49976C14.0437 8.33564 13.0969 7.38885 11.9328 7.38885ZM23.7674 9.13332C21.1015 4.53338 16.8987 2 11.9328 2C6.96643 2 2.76362 4.53289 0.0986746 9.13332C-0.0328915 9.35991 -0.0328915 9.63961 0.0986746 9.86619C2.76362 14.4661 6.96643 17 11.9328 17C16.8992 17 21.102 14.4666 23.7674 9.86619C23.899 9.63961 23.899 9.35991 23.7674 9.13332ZM11.9328 13.6085C9.66743 13.6085 7.82356 11.7656 7.82356 9.49976C7.82356 7.2339 9.66694 5.39051 11.9328 5.39051C14.1987 5.39051 16.0421 7.2339 16.0421 9.49976C16.0421 11.7656 14.1982 13.6085 11.9328 13.6085Z" fill="#C0C0C0"/>
</svg>
