<svg width="106" height="113" viewBox="0 0 106 113" fill="none" xmlns="http://www.w3.org/2000/svg">
<g clip-path="url(#clip0)">
<path d="M11.6866 113H94.3135C97.4441 113 100.446 111.677 102.66 109.323C104.874 106.968 106.117 103.774 106.117 100.444V12.5556C106.117 9.22561 104.874 6.03206 102.66 3.67744C100.446 1.32281 97.4441 0 94.3135 0H11.6866C8.55608 0 5.55372 1.32281 3.34008 3.67744C1.12643 6.03206 -0.117187 9.22561 -0.117188 12.5556V100.444C-0.117187 103.774 1.12643 106.968 3.34008 109.323C5.55372 111.677 8.55608 113 11.6866 113Z" fill="white"/>
<path d="M43.652 76.6677L29.7058 61.8333L12 86.9444H94.6268L65.1173 43L43.652 76.6677Z" fill="#39B689"/>
<circle cx="41" cy="36" r="7" fill="#FFB800"/>
</g>
<defs>
<clipPath id="clip0">
<rect width="106" height="113" fill="white"/>
</clipPath>
</defs>
</svg>
