<svg width="103" height="113" viewBox="0 0 103 113" fill="none" xmlns="http://www.w3.org/2000/svg">
<path fill-rule="evenodd" clip-rule="evenodd" d="M67.5008 2.79191C65.668 1.15487 63.2967 0.25 60.8392 0.25H14.2746C10.9341 0.25 7.73051 1.43526 5.36846 3.54505C3.00642 5.65483 1.67944 8.51631 1.67944 11.5V98.75C1.67944 106.482 7.94746 112.75 15.6794 112.75H88.4403C96.1723 112.75 102.44 106.482 102.44 98.75V37.581C102.44 35.3026 101.469 33.1323 99.7696 31.6145L67.5008 2.79191Z" fill="#EA8282"/>
<path d="M28.1417 82.4312C31.4857 82.4312 34.3574 81.7 36.3033 80.0687C37.7895 78.8031 38.6082 76.9412 38.6145 74.7362C38.6145 72.5425 37.5313 70.6806 35.9318 69.5444C34.2503 68.3462 31.7565 67.75 28.2487 67.75C25.6801 67.7184 23.1128 67.8727 20.572 68.2112V90.3512H26.202V82.33C26.8452 82.4037 27.4933 82.4375 28.1417 82.4312Z" fill="white"/>
<path d="M48.6906 90.5875C53.609 90.5875 57.6331 89.6537 60.2781 87.6906C62.6964 85.8625 64.4534 82.8981 64.4534 78.6062C64.4534 74.6406 62.816 71.8787 60.2025 70.1462C57.7843 68.515 54.6859 67.75 49.9186 67.75C47.3501 67.7294 44.7836 67.8855 42.2419 68.2169V90.25C43.6589 90.4187 45.7433 90.5875 48.6906 90.5875Z" fill="white"/>
<path d="M73.8997 72.0812H83.5476V67.9187H68.1941V90.3569H73.8997V81.3344H82.9178V77.2056H73.8997V72.0812Z" fill="white"/>
<path d="M28.5512 71.5751C27.3924 71.5751 26.6115 71.6763 26.2085 71.7776V78.4038C26.6871 78.5051 27.2854 78.5332 28.1104 78.5332C31.1269 78.5332 32.9847 77.1719 32.9847 74.8713C32.9847 72.8126 31.3851 71.5751 28.5512 71.5751ZM50.5108 71.6426C49.2512 71.6426 48.4326 71.7438 47.9477 71.8451V86.5263C48.4326 86.6276 49.2135 86.6276 49.9188 86.6276C55.0639 86.6613 58.4142 84.1301 58.4142 78.7751C58.452 74.1063 55.3977 71.6426 50.5108 71.6426Z" fill="#EA8282"/>
<path d="M59.3574 39.625H64.655H87.2245C88.1428 39.625 88.5756 38.4909 87.8906 37.8792L60.0236 12.9882C59.3792 12.4127 58.3574 12.87 58.3574 13.734V38.625C58.3574 39.1773 58.8051 39.625 59.3574 39.625Z" fill="white"/>
</svg>
