<svg width="304" height="258" viewBox="0 0 304 258" fill="none" xmlns="http://www.w3.org/2000/svg">
<g clip-path="url(#clip0)">
<path fill-rule="evenodd" clip-rule="evenodd" d="M175.167 -0.166626C105.146 -0.166626 46 58.9788 46 129C46 199.021 105.146 258.167 175.167 258.167C245.188 258.167 304.334 199.021 304.334 129C304.334 58.9788 245.188 -0.166626 175.167 -0.166626ZM175.167 64.4167C197.474 64.4167 213.917 80.8467 213.917 103.167C213.917 125.487 197.474 141.917 175.167 141.917C152.873 141.917 136.417 125.487 136.417 103.167C136.417 80.8467 152.873 64.4167 175.167 64.4167ZM229.871 212C237.243 212 242.682 204.852 240.8 197.724C235.44 177.425 228.134 153 210.5 153H140.5C122.16 153 113.817 182.734 110.519 199.985C109.296 206.384 114.327 212 120.842 212H229.871Z" fill="#0F002E"/>
<path d="M134 189.795C134 223.744 105.529 251.591 70 251.591C34.4713 251.591 6 223.744 6 189.795C6 155.846 34.4713 128 70 128C105.529 128 134 155.846 134 189.795Z" fill="white" stroke="#0F002E" stroke-width="12"/>
<path d="M70.5001 203C79.5999 203 87 196.219 87 187.88V165.199C87 156.819 79.637 150 70.5867 150C70.2964 150.001 70.0072 150.033 69.7246 150.094C65.4893 150.283 61.4949 151.956 58.568 154.767C55.6411 157.579 54.0056 161.314 54 165.199V187.88C54 196.219 61.4003 203 70.5001 203Z" fill="#00C1EB"/>
<path d="M64.3487 218.706V224.517C64.3487 227.545 66.8652 230 69.9694 230C73.0737 230 75.5902 227.545 75.5902 224.517V218.706C90.312 216.982 101.753 207.865 103.94 194.588C104.383 191.897 102.309 189.55 99.557 189.083C96.0432 188.486 92.911 191.186 91.8873 194.52C89.1784 203.342 80.8212 208.413 69.5947 208.413C58.2792 208.413 50.5531 203.755 48.1535 194.979C47.2546 191.691 44.3384 188.986 40.87 189.346C37.885 189.656 35.5511 192.134 36.0734 195.018C38.4349 208.059 49.7866 217.001 64.3487 218.706Z" fill="#00C1EB"/>
</g>
<defs>
<clipPath id="clip0">
<rect width="304" height="258" fill="white"/>
</clipPath>
</defs>
</svg>
