<svg width="500" height="419" viewBox="0 0 500 419" fill="none" xmlns="http://www.w3.org/2000/svg">
<path d="M162.54 132.53L162.5 132.49V230.46C162.5 235.98 166.63 238 170.06 238C173.92 238 175.05 236.09 176.68 234.07C193.02 213.45 210.64 207.42 238.8 207.42C197.14 207.43 163.29 174.02 162.54 132.53Z" fill="#9E69F3"/>
<path d="M315.12 109.62V131.07C315.09 91.85 285.48 59.57 247.4 55.3C247.36 55.29 247.33 55.28 247.29 55.27V33.91C247.29 15.18 262.47 0 281.2 0C294.57 0 305.78 7.42999 311.65 18.96C314.44 24.01 315.42 29.65 315.12 35.13V44.18C315.12 44.18 304.27 48.06 304.27 55.19C304.27 62.56 315.12 87.81 315.12 109.62Z" fill="#9E69F3"/>
<path d="M335.95 30.82L311.65 18.96C314.44 24.01 315.42 29.65 315.12 35.13V44.18L335.95 35.74C338.13 34.83 338.14 31.73 335.95 30.82Z" fill="#F9F9F9"/>
<path d="M238.81 207.43C280.955 207.43 315.12 173.265 315.12 131.12C315.12 88.9752 280.955 54.8101 238.81 54.8101C196.665 54.8101 162.5 88.9752 162.5 131.12C162.5 173.265 196.665 207.43 238.81 207.43Z" fill="#F9F9F9"/>
<path d="M238.81 174.89C262.984 174.89 282.58 155.294 282.58 131.12C282.58 106.947 262.984 87.3501 238.81 87.3501C214.637 87.3501 195.04 106.947 195.04 131.12C195.04 155.294 214.637 174.89 238.81 174.89Z" fill="#9E69F3"/>
<path d="M211.42 136.27C214.425 136.27 216.86 133.835 216.86 130.83C216.86 127.826 214.425 125.39 211.42 125.39C208.416 125.39 205.98 127.826 205.98 130.83C205.98 133.835 208.416 136.27 211.42 136.27Z" fill="#F9F9F9"/>
<path d="M238.59 136.27C241.595 136.27 244.03 133.835 244.03 130.83C244.03 127.826 241.595 125.39 238.59 125.39C235.586 125.39 233.15 127.826 233.15 130.83C233.15 133.835 235.586 136.27 238.59 136.27Z" fill="#F9F9F9"/>
<path d="M265.77 136.27C268.775 136.27 271.21 133.835 271.21 130.83C271.21 127.826 268.775 125.39 265.77 125.39C262.766 125.39 260.33 127.826 260.33 130.83C260.33 133.835 262.766 136.27 265.77 136.27Z" fill="#F9F9F9"/>
<path d="M290.63 14.3101C286.56 14.3101 283.27 17.61 283.27 21.67V23.7101V26.8401C283.27 27.9901 284.21 28.9301 285.36 28.9301C286.51 28.9301 287.45 27.9901 287.45 26.8401V23.7101V21.67C287.45 19.91 288.88 18.48 290.64 18.48C292.4 18.48 293.83 19.91 293.83 21.67V23.7101V26.8401C293.83 27.9901 294.76 28.9301 295.92 28.9301C297.07 28.9301 298.01 28.0001 298.01 26.8401V23.7101V21.67C298 17.61 294.7 14.3101 290.63 14.3101Z" fill="#F9F9F9"/>
<path d="M500 343.04C500 318.78 480.13 299.15 455.77 299.56C431.93 299.96 413.03 319.91 413.03 343.76V355.1V374.82C413.03 381.63 418.55 387.15 425.36 387.15C432.17 387.15 437.69 381.63 437.69 374.82V355.1V343.49C437.69 333.29 445.62 324.6 455.82 324.23C466.53 323.85 475.32 332.41 475.32 343.04V355.1V374.82C475.32 381.63 480.84 387.15 487.65 387.15C494.46 387.15 499.98 381.63 499.98 374.82V355.1V343.04H500Z" fill="#F9F9F9"/>
<path d="M326.26 381.39C319.2 377.68 313.67 372.52 309.7 365.93C305.72 359.34 303.73 351.86 303.73 343.48C303.73 335.11 305.72 327.62 309.7 321.03C313.68 314.44 319.2 309.28 326.26 305.57C333.32 301.86 341.3 300 350.2 300C359.09 300 367.05 301.86 374.06 305.57C381.07 309.29 386.57 314.44 390.54 321.03C394.52 327.62 396.51 335.11 396.51 343.48C396.51 351.85 394.52 359.34 390.54 365.93C386.56 372.52 381.07 377.68 374.06 381.39C367.05 385.11 359.09 386.96 350.2 386.96C341.31 386.96 333.33 385.1 326.26 381.39ZM365.67 360.51C369.7 356.27 371.71 350.6 371.71 343.48C371.71 336.36 369.69 330.69 365.67 326.45C361.64 322.21 356.49 320.09 350.21 320.09C343.93 320.09 338.75 322.21 334.67 326.45C330.59 330.69 328.55 336.37 328.55 343.48C328.55 350.6 330.59 356.27 334.67 360.51C338.75 364.75 343.93 366.87 350.21 366.87C356.48 366.86 361.64 364.75 365.67 360.51Z" fill="#F9F9F9"/>
<path d="M137.639 311.98V374.62C137.639 381.43 132.119 386.95 125.309 386.95C118.499 386.95 112.979 381.43 112.979 374.62V311.98C112.979 305.17 118.499 299.65 125.309 299.65C132.119 299.65 137.639 305.17 137.639 311.98Z" fill="#F9F9F9"/>
<path d="M125.31 262.47C116.84 262.47 109.97 269.34 109.97 277.81V297.78C109.97 298.89 110.8 299.3 111.49 299.3C112.27 299.3 112.49 298.92 112.82 298.51C116.1 294.37 119.65 293.15 125.31 293.15C133.78 293.15 140.65 286.28 140.65 277.81C140.65 269.34 133.78 262.47 125.31 262.47Z" fill="#9E69F3"/>
<path d="M231.01 299.65C237.82 299.65 243.34 305.17 243.34 311.98V372.73C243.34 388.33 239.39 399.07 231.48 406.67C223.57 414.26 212.08 418.06 197.01 418.06C189 418.06 181.43 417.06 174.32 415.06C171.21 414.18 168.32 413.14 165.64 411.92C160.31 409.5 158.23 403 161.07 397.88C163.66 393.2 169.42 391.43 174.28 393.66C175.86 394.38 177.53 395.04 179.3 395.61C184.46 397.29 189.68 398.14 194.96 398.14C203.18 398.14 209.19 396.24 212.99 392.45C216.78 388.65 218.68 383.71 218.68 375.91V373.06C215.52 376.22 211.77 378.65 207.45 380.33C203.13 382.02 198.49 382.86 193.53 382.86C182.35 382.86 173.5 379.67 166.96 373.29C160.42 366.91 157.16 357.35 157.16 344.59V311.99C157.16 305.18 162.68 299.66 169.49 299.66C176.3 299.66 181.82 305.18 181.82 311.99V340.95C181.82 354.76 187.56 361.67 199.06 361.67C204.96 361.67 209.71 359.75 213.29 355.9C216.87 352.05 218.67 346.33 218.67 338.74V311.98C218.67 305.17 224.19 299.65 231.01 299.65Z" fill="#F9F9F9"/>
<path d="M262.85 311.979V374.619C262.85 381.429 268.37 386.949 275.18 386.949C281.99 386.949 287.51 381.429 287.51 374.619V311.979C287.51 305.169 281.99 299.649 275.18 299.649C268.37 299.649 262.85 305.169 262.85 311.979Z" fill="#F9F9F9"/>
<path d="M275.19 262.54C283.66 262.54 290.53 269.41 290.53 277.88V297.85C290.53 298.96 289.7 299.37 289.01 299.37C288.23 299.37 288.01 298.99 287.68 298.58C284.4 294.44 280.85 293.22 275.19 293.22C266.72 293.22 259.85 286.35 259.85 277.88C259.85 269.41 266.71 262.54 275.19 262.54Z" fill="#9E69F3"/>
<path d="M86.16 320.13C82.51 313.62 77.48 308.56 71.07 304.96C64.66 301.36 57.54 299.57 49.72 299.57C38.15 299.57 29.32 303.24 23.28 310.53C23.28 310.48 23.28 310.43 23.27 310.37C22.97 306.18 20.45 302.61 16.88 300.81C15.31 300.02 13.53 299.56 11.65 299.56C9.77 299.56 7.99 300.02 6.42 300.81C2.62 302.74 0 306.67 0 311.23V405.9C0 412.64 5.46 418.1 12.2 418.1C18.94 418.1 24.4 412.64 24.4 405.9V387.99C24.4 383.56 29.06 380.63 33.02 382.62C37.78 385.01 43.35 386.21 49.73 386.21C57.55 386.21 64.66 384.41 71.08 380.81C77.49 377.21 82.52 372.16 86.17 365.64C89.82 359.13 91.64 351.54 91.64 342.89C91.64 334.23 89.81 326.65 86.16 320.13ZM60.91 359.85C56.89 364.07 51.76 366.18 45.51 366.18C39.25 366.18 34.12 364.07 30.11 359.85C26.1 355.63 24.09 349.97 24.09 342.88C24.09 335.79 26.1 330.13 30.11 325.91C34.12 321.69 39.26 319.58 45.51 319.58C51.76 319.58 56.9 321.69 60.91 325.91C64.92 330.13 66.93 335.79 66.93 342.88C66.93 349.98 64.92 355.63 60.91 359.85Z" fill="#F9F9F9"/>
</svg>
