<svg width="95" height="21" viewBox="0 0 95 21" fill="none" xmlns="http://www.w3.org/2000/svg">
<path d="M73.2647 0.00100708H73.2256C72.2061 0.00100708 71.3743 0.833304 71.3743 1.85435V8.73763C71.3743 11.9318 71.1603 13.2169 70.9794 13.7392C70.6139 14.8346 69.9668 15.6943 69.0001 16.3662C68.0412 17.0341 66.8468 17.3716 65.4471 17.3716C64.0366 17.3716 62.8148 17.0234 61.8178 16.3368C60.8179 15.6483 60.1601 14.7348 59.8072 13.5485C59.5658 12.7025 59.4436 11.0829 59.4436 8.73763V1.85435C59.4436 0.833304 58.6118 0.00100708 57.5913 0.00100708C56.5709 0.00100708 55.741 0.833304 55.741 1.85435V9.04473C55.741 12.1343 56.087 14.4003 56.8006 15.9662C57.5151 17.5408 58.6118 18.7809 60.0594 19.6533C61.4962 20.5208 63.3094 20.9609 65.4461 20.9609C67.572 20.9609 69.3735 20.5198 70.7996 19.6523C72.2296 18.7809 73.3214 17.5554 74.0428 16.0092C74.7534 14.4874 75.114 12.2145 75.114 9.255V1.85435C75.114 0.833304 74.2842 0.00100708 73.2647 0.00100708Z" fill="white"/>
<path d="M33.8747 20.9599H33.9128C34.9342 20.9599 35.765 20.1286 35.765 19.1076V12.2243C35.765 9.02909 35.9791 7.74494 36.1599 7.22268C36.5245 6.1273 37.1736 5.26764 38.1393 4.59476C39.0982 3.92776 40.2936 3.59033 41.6923 3.59033C43.1027 3.59033 44.3246 3.93849 45.3216 4.62506C46.3215 5.31358 46.9803 6.22706 47.3331 7.4134C47.5746 8.25939 47.6968 9.87801 47.6968 12.2243V19.1076C47.6968 20.1286 48.5266 20.9599 49.549 20.9599C50.5685 20.9599 51.3993 20.1286 51.3993 19.1076V11.9172C51.3993 8.82665 51.0524 6.56253 50.3398 4.99477C49.6243 3.42114 48.5276 2.181 47.081 1.30861C45.6431 0.441106 43.831 0.00100708 41.6933 0.00100708C39.5683 0.00100708 37.7669 0.442091 36.3408 1.30959C34.9098 2.18101 33.818 3.40646 33.0966 4.95173C32.385 6.4745 32.0244 8.74743 32.0244 11.7069V19.1076C32.0234 20.1286 32.8552 20.9599 33.8747 20.9599Z" fill="white"/>
<path d="M1.85128 20.9597H1.89038C2.90985 20.9597 3.74069 20.1283 3.74069 19.1073V12.224C3.74069 9.02882 3.95475 7.74467 4.13656 7.22241C4.50212 6.12703 5.14919 5.26737 6.11687 4.59449C7.07477 3.92748 8.27019 3.59006 9.66892 3.59006C11.0804 3.59006 12.3012 3.93822 13.2982 4.62478C14.2981 5.31331 14.9559 6.22679 15.3088 7.41313C15.5502 8.25911 15.6724 9.87774 15.6724 12.224V19.1073C15.6724 20.1283 16.5032 20.9597 17.5237 20.9597C18.5442 20.9597 19.374 20.1283 19.374 19.1073V11.9169C19.374 8.82637 19.028 6.56226 18.3145 4.9945C17.599 3.42086 16.5032 2.18073 15.0556 1.30833C13.6188 0.440831 11.8056 0.000732422 9.66892 0.000732422C7.54297 0.000732422 5.74251 0.441816 4.31641 1.30932C2.88543 2.18073 1.79362 3.40619 1.07226 4.95146C0.361656 6.47423 0 8.74716 0 11.7066V19.1073C0 20.1283 0.831806 20.9597 1.85128 20.9597Z" fill="white"/>
<path d="M25.5873 0.00100708C26.6048 0.00100708 27.4288 0.825464 27.4288 1.84358V19.0186C27.4288 20.0367 26.6048 20.8611 25.5873 20.8611C24.5708 20.8611 23.7458 20.0367 23.7458 19.0186V1.84457C23.7458 0.825471 24.5708 0.00100708 25.5873 0.00100708Z" fill="white"/>
<path d="M86.7547 21C85.2719 21 83.8037 20.7418 82.3952 20.2313C81.276 19.8273 80.2624 19.2709 79.3827 18.5765C78.7337 18.065 78.5812 17.1544 79.0259 16.461L79.1061 16.3358C79.3436 15.9671 79.7287 15.7099 80.1588 15.6307C80.5918 15.5525 81.0424 15.6571 81.3972 15.9192C82.1147 16.4532 82.8507 16.8777 83.5828 17.1818C84.5524 17.5838 85.6071 17.7872 86.7195 17.7872C88.0331 17.7872 89.08 17.5153 89.8316 16.9804C90.5227 16.4874 90.8599 15.7989 90.8599 14.8737C90.8599 14.4737 90.7788 14.147 90.6205 13.9055C90.4445 13.6404 90.1728 13.3959 89.8101 13.1808C89.4055 12.9421 88.8816 12.725 88.2511 12.5343C87.5747 12.3299 86.7859 12.1186 85.9062 11.9054L85.8974 11.9035C84.8388 11.6325 83.9083 11.3568 83.1312 11.0858C82.3161 10.8003 81.626 10.4668 81.0835 10.0961C80.4931 9.69315 80.0445 9.18456 79.7512 8.58406C79.4648 7.99822 79.3192 7.26863 79.3192 6.41775C79.3192 5.37225 79.5235 4.4275 79.9262 3.61183C80.3279 2.79518 80.8831 2.11055 81.5751 1.57753C82.2496 1.05527 83.0481 0.658207 83.9464 0.392186C84.8252 0.132033 85.7723 0 86.7566 0C88.2277 0 89.5873 0.256247 90.7993 0.761883C91.6683 1.12473 92.4317 1.57949 93.066 2.11349C93.7248 2.66901 93.8226 3.63628 93.2889 4.316C93.025 4.65146 92.6457 4.86269 92.2225 4.91159C91.7954 4.96147 91.376 4.84021 91.0378 4.57125C90.5755 4.20156 90.0447 3.90133 89.4612 3.6803C88.5795 3.34581 87.6461 3.1766 86.6872 3.1766C86.1203 3.1766 85.5895 3.23724 85.1086 3.35753C84.66 3.47001 84.2622 3.64997 83.9269 3.89057C83.6024 4.12334 83.3561 4.41086 83.1723 4.76979C82.9895 5.12286 82.8966 5.55515 82.8966 6.05296C82.8966 6.45591 82.9543 6.77179 83.0687 6.99087C83.1733 7.19918 83.3639 7.38795 83.6287 7.55324C83.9513 7.75471 84.3765 7.93955 84.8906 8.10484C85.4419 8.28284 86.1232 8.46768 86.911 8.65643L86.9189 8.6584C88.0869 8.95279 89.1318 9.25108 90.0232 9.54742C90.9538 9.85354 91.7494 10.2232 92.3857 10.6418C93.066 11.0897 93.589 11.6482 93.9428 12.3015C94.2937 12.9558 94.4735 13.748 94.4735 14.6556C94.4735 16.6067 93.7463 18.1774 92.3144 19.3246C90.9235 20.4366 89.0526 21 86.7547 21Z" fill="white"/>
</svg>
