<svg width="214" height="153" viewBox="0 0 214 153" fill="none" xmlns="http://www.w3.org/2000/svg">
<g clip-path="url(#clip0)">
<path d="M207.673 44.8353H90.5695C88.9211 44.8368 87.3407 45.4913 86.1751 46.6552C85.0095 47.8192 84.354 49.3974 84.3525 51.0434V69.9947C84.354 71.6408 85.0095 73.219 86.1751 74.3829C87.3407 75.5468 88.9211 76.2014 90.5695 76.2029H207.673C209.321 76.2014 210.902 75.5468 212.067 74.3829C213.233 73.219 213.888 71.6408 213.89 69.9947V51.0434C213.888 49.3974 213.233 47.8192 212.067 46.6552C210.902 45.4913 209.321 44.8368 207.673 44.8353Z" fill="#F2F2F2"/>
<path d="M46.9616 153H0.372711C0.273862 153 0.179056 152.961 0.109159 152.891C0.0392617 152.821 0 152.726 0 152.628C0 152.529 0.0392617 152.434 0.109159 152.365C0.179056 152.295 0.273862 152.256 0.372711 152.256H46.9616C47.0605 152.256 47.1553 152.295 47.2252 152.365C47.2951 152.434 47.3343 152.529 47.3343 152.628C47.3343 152.726 47.2951 152.821 47.2252 152.891C47.1553 152.961 47.0605 153 46.9616 153Z" fill="#3F3D56"/>
<path d="M40.121 36.4662C39.6889 36.7385 39.3219 37.1022 39.0458 37.5315C38.7697 37.9608 38.5912 38.4453 38.5229 38.9509C38.4546 39.4565 38.4981 39.971 38.6505 40.458C38.8028 40.945 39.0602 41.3927 39.4046 41.7696L36.0176 48.9921L39.9108 52.118L44.5505 41.8514C45.1463 41.2317 45.4937 40.4153 45.527 39.557C45.5603 38.6986 45.2771 37.8579 44.7311 37.1941C44.1851 36.5303 43.4142 36.0895 42.5645 35.9554C41.7148 35.8212 40.8454 36.003 40.121 36.4662V36.4662Z" fill="#FFB8B8"/>
<path d="M20.6575 39.3971C21.7294 38.7542 23.008 38.5479 24.2281 38.821C25.4483 39.0941 26.5164 39.8258 27.2108 40.8641L34.1413 51.2266L36.5473 45.9299C36.6976 45.5992 36.9637 45.3347 37.2956 45.1862C37.6276 45.0378 38.0024 45.0156 38.3495 45.1239L41.981 46.2567C42.1707 46.3158 42.3467 46.4123 42.4985 46.5404C42.6504 46.6685 42.775 46.8256 42.8652 47.0024C42.9553 47.1793 43.0091 47.3724 43.0234 47.5704C43.0378 47.7684 43.0123 47.9672 42.9485 48.1552L40.4627 55.4851C40.1483 56.4124 39.6229 57.2542 38.9278 57.9445C38.2327 58.6349 37.3869 59.1549 36.4567 59.4639C35.5264 59.7728 34.5372 59.8623 33.5665 59.7252C32.5958 59.5882 31.6702 59.2283 30.8622 58.6739C30.4847 58.4148 30.1364 58.1157 29.8233 57.7817L19.6101 46.8843C19.1142 46.3551 18.743 45.7219 18.5238 45.0309C18.3047 44.3399 18.243 43.6088 18.3434 42.891C18.4438 42.1732 18.7038 41.4869 19.1042 40.8823C19.5045 40.2778 20.0353 39.7703 20.6575 39.3971Z" fill="#CCCCCC"/>
<path d="M43.0771 28.69C43.2632 28.6947 43.4397 28.7729 43.568 28.9075C43.6963 29.0421 43.7657 29.2221 43.7611 29.4078L43.7013 31.8131L43.8221 31.8241L43.7787 33.4578L43.6607 33.4431L43.4464 42.0601C43.4391 42.355 43.3245 42.6372 43.1242 42.854C42.9238 43.0708 42.6513 43.2074 42.3575 43.2383L36.8705 43.8151C36.7369 43.8292 36.6018 43.8139 36.4748 43.7703C36.3477 43.7267 36.2318 43.6559 36.135 43.5628C36.0383 43.4698 35.9631 43.3567 35.9148 43.2315C35.8664 43.1064 35.8461 42.9722 35.8551 42.8383L36.6873 30.5683C36.7048 30.3106 36.8096 30.0665 36.9844 29.8761C37.1592 29.6857 37.3937 29.5604 37.6493 29.5208L42.9463 28.699C42.9895 28.692 43.0333 28.6889 43.0771 28.69Z" fill="#3F3D56"/>
<path d="M38.8308 29.9671L41.6154 29.5351C41.6655 29.5273 41.7117 29.5033 41.7467 29.4666C41.7818 29.43 41.8038 29.3829 41.8093 29.3325C41.8155 29.2755 41.8404 29.2221 41.8801 29.1806C41.9198 29.1392 41.9721 29.1119 42.0289 29.1031L42.6154 29.0121C42.6955 28.9997 42.7773 29.005 42.855 29.0276C42.9328 29.0502 43.0047 29.0895 43.0655 29.1429C43.1264 29.1962 43.1748 29.2623 43.2074 29.3364C43.2399 29.4104 43.2557 29.4907 43.2538 29.5716L42.9523 42.0648C42.9485 42.2199 42.8878 42.3681 42.7816 42.4812C42.6753 42.5944 42.5311 42.6645 42.3765 42.6782L36.8935 43.165C36.8235 43.1712 36.7531 43.1623 36.6869 43.1388C36.6207 43.1153 36.5604 43.0779 36.5101 43.029C36.4597 42.9801 36.4206 42.9209 36.3952 42.8556C36.3699 42.7902 36.3589 42.7201 36.3632 42.6501L37.103 30.4934C37.1139 30.3143 37.1858 30.1443 37.3068 30.0117C37.4278 29.879 37.5906 29.7916 37.7682 29.7641L38.3865 29.6681C38.4092 29.7647 38.4676 29.8491 38.55 29.9045C38.6323 29.96 38.7326 29.9823 38.8308 29.9671Z" fill="white"/>
<path d="M25.9116 148.482L30.1725 148.482L32.1989 132.07L25.9102 132.071L25.9116 148.482Z" fill="#FFB8B8"/>
<path d="M38.3901 152.432L24.9987 152.433L24.9982 147.267L33.2157 147.266C33.8952 147.266 34.568 147.4 35.1957 147.659C35.8235 147.919 36.3939 148.299 36.8744 148.779C37.3549 149.259 37.736 149.828 37.9961 150.455C38.2562 151.082 38.3901 151.754 38.3901 152.432L38.3901 152.432Z" fill="#2F2E41"/>
<path d="M12.8159 148.482L17.0768 148.482L19.1032 132.07L12.8145 132.071L12.8159 148.482Z" fill="#FFB8B8"/>
<path d="M25.2947 152.432L11.9033 152.433L11.9028 147.267L20.1203 147.266C21.4925 147.266 22.8085 147.81 23.7789 148.779C24.7493 149.748 25.2946 151.062 25.2947 152.432L25.2947 152.432Z" fill="#2F2E41"/>
<path d="M25.2948 33.8193C30.3505 33.8193 34.449 29.7267 34.449 24.6781C34.449 19.6295 30.3505 15.5368 25.2948 15.5368C20.2391 15.5368 16.1406 19.6295 16.1406 24.6781C16.1406 29.7267 20.2391 33.8193 25.2948 33.8193Z" fill="#FFB8B8"/>
<path d="M30.006 49.1354C29.9312 46.7851 29.2686 44.491 28.0786 42.4619C26.8886 40.4329 25.2091 38.7335 23.193 37.5186C20.828 36.127 18.2393 35.5842 16.1799 37.6408C14.9432 38.9067 13.9529 40.391 13.2593 42.0181C11.3542 46.4523 11.2296 51.4482 12.9112 55.9715L17.8129 69.4945L29.1579 70.7218C29.371 70.7449 29.5866 70.7218 29.7899 70.6541C29.9933 70.5864 30.1796 70.4757 30.3363 70.3296C30.4929 70.1835 30.6161 70.0054 30.6976 69.8074C30.779 69.6094 30.8167 69.3962 30.8082 69.1823L30.006 49.1354Z" fill="#2F2E41"/>
<path d="M18.5322 67.8293C18.5322 67.8293 10.0563 70.9891 12.2723 84.3687C14.2609 96.3749 12.6806 136.225 12.3352 144.281C12.3187 144.665 12.4518 145.04 12.7064 145.328C12.961 145.617 13.3174 145.795 13.7009 145.827L18.6487 146.238C19.0362 146.271 19.421 146.15 19.721 145.903C20.021 145.656 20.2125 145.302 20.2545 144.916L22.8098 121.478C22.8199 121.386 22.8638 121.301 22.9332 121.24C23.0025 121.178 23.0923 121.145 23.1849 121.146C23.2775 121.147 23.3664 121.183 23.4343 121.246C23.5021 121.309 23.544 121.395 23.5518 121.487L25.4558 144.04C25.4879 144.42 25.6648 144.773 25.95 145.026C26.2351 145.28 26.6069 145.415 26.9886 145.403L31.1444 145.271C31.3402 145.265 31.5329 145.221 31.7114 145.14C31.89 145.059 32.0508 144.944 32.1848 144.802C32.3188 144.659 32.4234 144.491 32.4924 144.308C32.5615 144.125 32.5937 143.93 32.5872 143.734L30.1392 69.3921L18.5322 67.8293Z" fill="#0F002E"/>
<path d="M27.1319 24.0758C30.1934 25.3297 34.1032 23.865 35.5834 20.9096C37.0636 17.9543 35.8922 13.9517 33.0511 12.2575C30.2101 10.5634 26.1258 11.4318 24.2223 14.1347C22.6739 11.349 18.6175 10.6388 15.8325 12.1932C13.0474 13.7476 11.5304 17.0033 11.3505 20.1843C11.1705 23.3652 12.139 26.4989 13.3204 29.4585C15.2313 34.2457 21.3832 36.8234 26.1429 34.8311C23.9639 31.5903 24.394 26.8479 27.1319 24.0758Z" fill="#2F2E41"/>
<path d="M39.4692 37.5745C39.3878 37.5747 39.3084 37.5484 39.2433 37.4996L39.2392 37.4965L38.3881 36.8464C38.3487 36.8162 38.3156 36.7785 38.2907 36.7356C38.2659 36.6927 38.2498 36.6452 38.2432 36.5961C38.2367 36.5469 38.24 36.4969 38.2528 36.449C38.2657 36.4011 38.2878 36.3562 38.3181 36.3168C38.3483 36.2774 38.386 36.2444 38.429 36.2196C38.472 36.1948 38.5195 36.1787 38.5687 36.1722C38.6179 36.1657 38.668 36.1689 38.716 36.1817C38.7639 36.1946 38.8089 36.2167 38.8483 36.2469L39.3996 36.669L40.7024 34.9718C40.7326 34.9325 40.7702 34.8995 40.8132 34.8747C40.8562 34.8499 40.9037 34.8337 40.9529 34.8273C41.0021 34.8208 41.0521 34.824 41.1001 34.8368C41.1481 34.8496 41.193 34.8718 41.2324 34.9019L41.2325 34.902L41.2245 34.9132L41.2328 34.902C41.3123 34.963 41.3643 35.053 41.3774 35.1523C41.3905 35.2515 41.3636 35.3519 41.3027 35.4314L39.7704 37.4268C39.735 37.4728 39.6894 37.51 39.6372 37.5355C39.585 37.561 39.5277 37.5742 39.4696 37.5741L39.4692 37.5745Z" fill="#6C63FF"/>
<path d="M114.51 26.4892C112.37 26.4892 110.278 25.8555 108.499 24.6682C106.719 23.4809 105.332 21.7933 104.513 19.8189C103.694 17.8445 103.48 15.6719 103.897 13.5758C104.315 11.4798 105.345 9.55442 106.859 8.04325C108.372 6.53208 110.3 5.50296 112.399 5.08602C114.498 4.66909 116.674 4.88307 118.651 5.7009C120.628 6.51873 122.318 7.90369 123.507 9.68062C124.696 11.4576 125.331 13.5467 125.331 15.6838C125.327 18.5485 124.186 21.295 122.158 23.3207C120.129 25.3464 117.379 26.4859 114.51 26.4892Z" fill="#CC94F8"/>
<path d="M191.805 24.506H135.562C134.868 24.506 134.202 24.2306 133.711 23.7403C133.22 23.2501 132.945 22.5853 132.945 21.892C132.945 21.1987 133.22 20.5339 133.711 20.0436C134.202 19.5534 134.868 19.278 135.562 19.278H191.805C192.499 19.278 193.165 19.5534 193.656 20.0436C194.147 20.5339 194.423 21.1987 194.423 21.892C194.423 22.5853 194.147 23.2501 193.656 23.7403C193.165 24.2306 192.499 24.506 191.805 24.506Z" fill="#CCCCCC"/>
<path d="M154.176 13.3966H135.562C134.868 13.3966 134.202 13.1212 133.711 12.631C133.22 12.1408 132.945 11.4759 132.945 10.7826C132.945 10.0893 133.22 9.42448 133.711 8.93426C134.202 8.44405 134.868 8.16864 135.562 8.16864H154.176C154.871 8.16864 155.536 8.44405 156.027 8.93426C156.518 9.42448 156.794 10.0893 156.794 10.7826C156.794 11.4759 156.518 12.1408 156.027 12.631C155.536 13.1212 154.871 13.3966 154.176 13.3966Z" fill="#CCCCCC"/>
<path d="M113.958 19.4846C113.689 19.485 113.428 19.3983 113.213 19.2375L113.2 19.2275L110.395 17.0851C110.265 16.9858 110.156 16.8618 110.074 16.7202C109.991 16.5787 109.938 16.4223 109.916 16.2602C109.895 16.098 109.905 15.9331 109.948 15.7751C109.99 15.617 110.063 15.4688 110.163 15.339C110.262 15.2091 110.387 15.1002 110.529 15.0184C110.671 14.9366 110.827 14.8835 110.99 14.8622C111.152 14.8409 111.317 14.8518 111.475 14.8943C111.634 14.9367 111.782 15.01 111.912 15.1097L113.728 16.5008L118.021 10.9084C118.12 10.7788 118.245 10.67 118.386 10.5882C118.528 10.5065 118.684 10.4534 118.847 10.432C119.009 10.4106 119.174 10.4213 119.332 10.4635C119.49 10.5057 119.638 10.5786 119.768 10.678L119.768 10.6783L119.741 10.7152L119.769 10.6783C120.031 10.8793 120.202 11.1759 120.245 11.503C120.288 11.8301 120.2 12.1609 119.999 12.4229L114.95 18.9978C114.833 19.1493 114.683 19.2718 114.511 19.356C114.339 19.4402 114.15 19.4837 113.959 19.4831L113.958 19.4846Z" fill="white"/>
<path d="M157.467 50.9895H40.3634C38.715 50.991 37.1346 51.6456 35.969 52.8095C34.8034 53.9734 34.148 55.5516 34.1465 57.1977V76.149C34.148 77.795 34.8034 79.3732 35.969 80.5372C37.1346 81.7011 38.715 82.3556 40.3634 82.3571H157.467C159.115 82.3556 160.696 81.7011 161.861 80.5372C163.027 79.3732 163.682 77.795 163.684 76.149V57.1977C163.682 55.5516 163.027 53.9734 161.861 52.8095C160.696 51.6456 159.115 50.991 157.467 50.9895V50.9895Z" fill="#F8F7F7"/>
<path d="M64.1943 77.4787C62.0541 77.4787 59.9621 76.845 58.1826 75.6577C56.4032 74.4704 55.0162 72.7828 54.1972 70.8084C53.3782 68.834 53.1639 66.6614 53.5814 64.5653C53.999 62.4693 55.0295 60.5439 56.5428 59.0328C58.0561 57.5216 59.9842 56.4925 62.0832 56.0756C64.1822 55.6586 66.3578 55.8726 68.3351 56.6904C70.3123 57.5083 72.0022 58.8932 73.1912 60.6702C74.3802 62.4471 75.0148 64.5362 75.0148 66.6733C75.0116 69.5381 73.8705 72.2846 71.842 74.3103C69.8134 76.336 67.0631 77.4754 64.1943 77.4787Z" fill="#CC94F8"/>
<path d="M141.489 75.4955H85.2463C84.5521 75.4955 83.8863 75.2201 83.3954 74.7299C82.9044 74.2397 82.6287 73.5748 82.6287 72.8815C82.6287 72.1883 82.9044 71.5234 83.3954 71.0332C83.8863 70.543 84.5521 70.2675 85.2463 70.2675H141.489C142.184 70.2675 142.849 70.543 143.34 71.0332C143.831 71.5234 144.107 72.1883 144.107 72.8815C144.107 73.5748 143.831 74.2397 143.34 74.7299C142.849 75.2201 142.184 75.4955 141.489 75.4955Z" fill="#CCCCCC"/>
<path d="M103.86 64.3861H85.2463C84.9026 64.3861 84.5622 64.3185 84.2446 64.1871C83.927 64.0558 83.6384 63.8632 83.3954 63.6205C83.1523 63.3777 82.9595 63.0896 82.8279 62.7724C82.6964 62.4553 82.6287 62.1154 82.6287 61.7721C82.6287 61.4288 82.6964 61.0889 82.8279 60.7718C82.9595 60.4547 83.1523 60.1665 83.3954 59.9238C83.6384 59.681 83.927 59.4885 84.2446 59.3571C84.5622 59.2258 84.9026 59.1581 85.2463 59.1581H103.86C104.555 59.1581 105.221 59.4336 105.711 59.9238C106.202 60.414 106.478 61.0788 106.478 61.7721C106.478 62.4654 106.202 63.1303 105.711 63.6205C105.221 64.1107 104.555 64.3861 103.86 64.3861Z" fill="#CCCCCC"/>
<path d="M63.6415 70.4741C63.373 70.4746 63.1116 70.3878 62.8969 70.227L62.8835 70.217L60.079 68.0746C59.9488 67.9753 59.8395 67.8513 59.7573 67.7098C59.6752 67.5682 59.6218 67.4119 59.6002 67.2497C59.5786 67.0875 59.5893 66.9227 59.6316 66.7646C59.6738 66.6065 59.7469 66.4583 59.8466 66.3285C59.9463 66.1987 60.0706 66.0897 60.2125 66.0079C60.3544 65.9261 60.511 65.873 60.6735 65.8517C60.8359 65.8304 61.001 65.8413 61.1592 65.8838C61.3174 65.9263 61.4657 65.9995 61.5956 66.0992L63.4121 67.4903L67.7048 61.898C67.8043 61.7683 67.9285 61.6595 68.0701 61.5777C68.2118 61.496 68.3681 61.4429 68.5303 61.4215C68.6925 61.4001 68.8574 61.4108 69.0154 61.4531C69.1734 61.4953 69.3216 61.5682 69.4515 61.6676L69.4518 61.6678L69.4252 61.7048L69.4525 61.6678C69.7145 61.8689 69.8859 62.1655 69.9291 62.4925C69.9723 62.8196 69.8838 63.1504 69.683 63.4124L64.6339 69.9873C64.5171 70.1388 64.3669 70.2614 64.195 70.3455C64.0231 70.4297 63.834 70.4732 63.6426 70.4726L63.6415 70.4741Z" fill="white"/>
<path d="M36.5662 55.2645C36.0956 55.0657 35.5871 54.9724 35.0766 54.9912C34.566 55.0099 34.0657 55.1402 33.611 55.3728C33.1563 55.6055 32.7582 55.9349 32.4448 56.3379C32.1313 56.7408 31.9102 57.2075 31.7969 57.705L23.9251 59.0516L23.5779 64.0281L34.6676 61.9705C35.5172 62.1051 36.3867 61.9239 37.1114 61.4611C37.8362 60.9984 38.3657 60.2862 38.5997 59.4596C38.8337 58.633 38.756 57.7494 38.3812 56.9762C38.0064 56.203 37.3606 55.594 36.5662 55.2645L36.5662 55.2645Z" fill="#FFB8B8"/>
<path d="M23.0442 40.9805C24.1848 41.4923 25.0844 42.4228 25.5565 43.579C26.0285 44.7353 26.0368 46.0287 25.5795 47.1909L21.0165 58.789L26.745 57.7375C27.1027 57.6719 27.4721 57.7391 27.7836 57.9264C28.0952 58.1138 28.3274 58.4085 28.4366 58.7549L29.5785 62.3789C29.6382 62.5682 29.6593 62.7675 29.6407 62.9651C29.6221 63.1627 29.5641 63.3546 29.4701 63.5295C29.3762 63.7044 29.2481 63.8588 29.0935 63.9836C28.9389 64.1083 28.7609 64.201 28.57 64.256L21.1243 66.4028C20.1825 66.6744 19.1904 66.7242 18.226 66.5485C17.2616 66.3728 16.3511 65.9762 15.566 65.39C14.7809 64.8037 14.1426 64.0437 13.7011 63.1697C13.2596 62.2956 13.027 61.3313 13.0216 60.3524C13.019 59.8949 13.0661 59.4386 13.162 58.9912L16.2905 44.3964C16.4425 43.6877 16.7512 43.0219 17.1942 42.4477C17.6371 41.8735 18.2031 41.4056 18.8506 41.0781C19.4981 40.7506 20.2107 40.5718 20.9363 40.555C21.6619 40.5381 22.3821 40.6835 23.0442 40.9805Z" fill="#CCCCCC"/>
</g>
<defs>
<clipPath id="clip0">
<rect width="214" height="153" fill="white"/>
</clipPath>
</defs>
</svg>
