<svg width="31" height="31" viewBox="0 0 31 31" fill="none" xmlns="http://www.w3.org/2000/svg">
<path d="M26.4622 22.1392L21.2116 17.3652C20.6963 16.8963 19.9006 16.9208 19.4149 17.4207L16.324 20.5995C15.58 20.4574 14.0842 19.9911 12.5445 18.4553C11.0049 16.9144 10.5386 15.4148 10.4004 14.6759L13.5766 11.5837C14.0778 11.098 14.101 10.3036 13.6321 9.78696L8.85942 4.53763C8.39054 4.01967 7.59358 3.97059 7.06271 4.42525L4.25979 6.82905C4.03633 7.0538 3.90329 7.35088 3.88521 7.66734C3.86583 7.99025 3.49642 15.6395 9.42775 21.5734C14.6022 26.7465 21.0838 27.125 22.8688 27.125C23.1298 27.125 23.2899 27.1173 23.3325 27.1147C23.649 27.0966 23.9461 26.9635 24.1695 26.7388L26.572 23.9346C27.0293 23.4037 26.9789 22.608 26.4622 22.1392Z" fill="#000"/>
</svg>
