<svg width="34" height="34" viewBox="0 0 34 34" fill="none" xmlns="http://www.w3.org/2000/svg">
<path d="M21.25 15.5833H31.1667V18.4167H21.25V15.5833ZM22.6667 21.25H31.1667V24.0833H22.6667V21.25ZM19.8334 9.91666H31.1667V12.75H19.8334V9.91666ZM5.66671 26.9167H17H18.4167H19.8334V25.5C19.8334 21.5942 16.6558 18.4167 12.75 18.4167H9.91671C6.01096 18.4167 2.83337 21.5942 2.83337 25.5V26.9167H4.25004H5.66671ZM11.3334 17C14.1596 17 16.2917 14.8679 16.2917 12.0417C16.2917 9.21541 14.1596 7.08333 11.3334 7.08333C8.50712 7.08333 6.37504 9.21541 6.37504 12.0417C6.37504 14.8679 8.50712 17 11.3334 17Z" fill="#0F002E"/>
</svg>
