<svg width="74" height="89" viewBox="0 0 74 89" fill="none" xmlns="http://www.w3.org/2000/svg">
<path d="M37.1796 0.640137C17.0296 0.640137 0.689453 16.9801 0.689453 37.1301V84.6401C0.689453 87.2801 2.66957 88.2401 4.30957 88.2401C6.15957 88.2401 6.69949 87.3301 7.47949 86.3601C15.2895 76.5001 23.7195 73.6201 37.1895 73.6201C57.3395 73.6201 73.6796 57.2801 73.6796 37.1301C73.6796 16.9801 57.3396 0.640137 37.1796 0.640137Z" fill="#F9F9F9"/>
<path d="M55.0492 39.4802V34.2603C55.2292 31.0903 54.6592 27.8402 53.0492 24.9202C49.6592 18.2602 43.1791 13.9702 35.4591 13.9702C24.6391 13.9702 15.8691 22.7402 15.8691 33.5602V45.9003V78.5602C21.6291 74.8902 28.3092 73.6403 37.1792 73.6403C43.3792 73.6403 49.2191 72.0902 54.3291 69.3602C52.5191 59.6102 48.7792 49.0102 48.7792 45.8502C48.7792 41.7202 55.0492 39.4802 55.0492 39.4802Z" fill="#9E69F3"/>
<path d="M67.0787 31.7602L53.0488 24.9102C54.6588 27.8302 55.2288 31.0902 55.0488 34.2502V39.4702L67.0787 34.6002C68.3387 34.0802 68.3387 32.2902 67.0787 31.7602Z" fill="#0A0A44"/>
<path d="M40.9092 22.2305C38.5592 22.2305 36.6592 24.1305 36.6592 26.4805V27.6605V29.4705C36.6592 30.1405 37.1991 30.6805 37.8691 30.6805C38.5391 30.6805 39.0791 30.1405 39.0791 29.4705V27.6605V26.4805C39.0791 25.4605 39.8992 24.6405 40.9192 24.6405C41.9392 24.6405 42.7592 25.4605 42.7592 26.4805V27.6605V29.4705C42.7592 30.1405 43.2991 30.6805 43.9691 30.6805C44.6391 30.6805 45.1792 30.1405 45.1792 29.4705V27.6605V26.4805C45.1592 24.1305 43.2592 22.2305 40.9092 22.2305Z" fill="#0A0A44"/>
</svg>
