<svg width="51" height="53" viewBox="0 0 51 53" fill="none" xmlns="http://www.w3.org/2000/svg">
<rect width="51" height="52.6721" rx="9" fill="#E8559B"/>
<path d="M26 18C21.0279 18 17 22.0294 17 26.999C17 31.9706 21.0279 36 26 36C30.9682 36 35 31.9706 35 26.999C35 22.0294 30.9682 18 26 18ZM26 32.8465C22.7703 32.8465 20.1518 30.2284 20.1518 27.001C20.1518 23.7716 22.7703 21.1554 26 21.1554C29.2297 21.1554 31.8443 23.7716 31.8443 27.001C31.8443 30.2284 29.2297 32.8465 26 32.8465Z" fill="white"/>
<path d="M36 19C37.1046 19 38 18.1046 38 17C38 15.8954 37.1046 15 36 15C34.8954 15 34 15.8954 34 17C34 18.1046 34.8954 19 36 19Z" fill="white"/>
<path d="M43.0464 14.3718C42.1088 11.8916 40.1997 9.93042 37.7828 8.97239C36.3854 8.43286 34.908 8.1436 33.4127 8.11078C31.4876 8.02462 30.8778 8 25.996 8C21.1142 8 20.4885 8 18.5793 8.11078C17.088 8.14155 15.6106 8.43081 14.2132 8.97239C11.7943 9.93042 9.88516 11.8916 8.94958 14.3718C8.42381 15.8078 8.14194 17.3218 8.11195 18.8563C8.02599 20.8298 8 21.4555 8 26.4672C8 31.4768 8 32.1148 8.11195 34.0781C8.14194 35.6126 8.42381 37.1265 8.94958 38.5646C9.88716 41.0427 11.7963 43.0039 14.2152 43.964C15.6066 44.522 17.084 44.8379 18.5833 44.8872C20.5084 44.9733 21.1182 45 26 45C30.8818 45 31.5076 45 33.4167 44.8872C34.91 44.8564 36.3874 44.5651 37.7868 44.0276C40.2037 43.0655 42.1128 41.1063 43.0504 38.6261C43.5762 37.1901 43.8581 35.6762 43.8881 34.1417C43.974 32.1682 44 31.5425 44 26.5308C44 21.5191 44 20.8831 43.8881 18.9199C43.8621 17.3649 43.5822 15.8242 43.0464 14.3718ZM40.6115 33.9263C40.5975 35.1079 40.3896 36.2793 39.9898 37.3891C39.3801 39.0036 38.1386 40.2796 36.5673 40.8991C35.4978 41.3074 34.3703 41.5207 33.2288 41.5371C31.3296 41.6274 30.7939 41.65 25.924 41.65C21.0502 41.65 20.5524 41.65 18.6173 41.5371C17.4798 41.5228 16.3483 41.3074 15.2808 40.8991C13.7035 40.2817 12.454 39.0057 11.8443 37.3891C11.4525 36.2936 11.2406 35.1346 11.2226 33.9652C11.1366 32.0164 11.1166 31.4666 11.1166 26.4692C11.1166 21.4698 11.1166 20.959 11.2226 18.9712C11.2366 17.7895 11.4445 16.6202 11.8443 15.5104C12.454 13.8918 13.7035 12.6178 15.2808 11.9983C16.3483 11.5921 17.4798 11.3767 18.6173 11.3603C20.5184 11.2721 21.0522 11.2474 25.924 11.2474C30.7959 11.2474 31.2956 11.2474 33.2288 11.3603C34.3703 11.3746 35.4978 11.59 36.5673 11.9983C38.1386 12.6199 39.3801 13.8959 39.9898 15.5104C40.3816 16.6058 40.5935 17.7649 40.6115 18.9342C40.6975 20.8852 40.7195 21.4329 40.7195 26.4323C40.7195 31.4296 40.7195 31.9671 40.6335 33.9283H40.6115V33.9263Z" fill="white"/>
</svg>
