<svg width="51" height="53" viewBox="0 0 51 53" fill="none" xmlns="http://www.w3.org/2000/svg">
<rect width="51" height="52.6721" rx="9" fill="#26AA92"/>
<path fill-rule="evenodd" clip-rule="evenodd" d="M39.1642 13.1563C35.8448 9.833 31.4308 8.00196 26.7288 8C17.039 8 9.15079 15.8862 9.14688 25.58C9.14688 28.678 9.95567 31.7017 11.493 34.369L9 43.4772L18.3197 41.0312C20.889 42.4314 23.7795 43.1697 26.721 43.1717H26.7288C36.4167 43.1717 44.3048 35.2855 44.3088 25.5917C44.3088 20.8956 42.4836 16.4796 39.1642 13.1563ZM26.7288 40.2048H26.7229C24.1007 40.2028 21.5294 39.4998 19.2852 38.1662L18.7525 37.8489L13.2222 39.3L14.6968 33.9088L14.3502 33.3565C12.8873 31.03 12.1157 28.3412 12.1157 25.58C12.1196 17.5234 18.6742 10.9688 26.7347 10.9688C30.6376 10.9708 34.3056 12.4924 37.0649 15.2537C39.8222 18.0169 41.3419 21.6868 41.3399 25.5917C41.336 33.6483 34.7815 40.2048 26.7288 40.2048ZM34.7443 29.2597C34.3036 29.0384 32.1455 27.977 31.7421 27.8301C31.3407 27.6832 31.0489 27.6108 30.7551 28.0494C30.4614 28.4881 29.6193 29.477 29.3628 29.7708C29.1062 30.0645 28.8497 30.0998 28.411 29.8805C27.9723 29.6611 26.5565 29.197 24.8782 27.7008C23.572 26.5356 22.6907 25.0982 22.4342 24.6576C22.1776 24.217 22.4068 23.98 22.628 23.7607C22.8258 23.5648 23.0667 23.2476 23.286 22.991C23.5054 22.7345 23.5778 22.5524 23.7247 22.2586C23.8716 21.9649 23.7991 21.7083 23.6875 21.489C23.5778 21.2677 22.6985 19.1057 22.3323 18.2264C21.9779 17.3745 21.6156 17.4881 21.3453 17.4764C21.0908 17.4646 20.797 17.4607 20.5052 17.4607C20.2115 17.4607 19.7356 17.5704 19.3322 18.009C18.9288 18.4497 17.7949 19.5111 17.7949 21.6731C17.7949 23.8351 19.3694 25.9246 19.5887 26.2184C19.808 26.5121 22.6868 30.9477 27.093 32.8512C28.1427 33.3036 28.9613 33.5739 29.5978 33.7775C30.6494 34.1124 31.607 34.0635 32.3649 33.9518C33.2089 33.8265 34.9636 32.8904 35.3298 31.8643C35.696 30.8381 35.696 29.9588 35.5863 29.7747C35.4767 29.5906 35.181 29.479 34.7443 29.2597Z" fill="white"/>
</svg>
