<svg width="350" height="364" viewBox="0 0 350 364" fill="none" xmlns="http://www.w3.org/2000/svg">
<g opacity="0.89">
<g opacity="0.89">
<path opacity="0.89" d="M207.04 86.7269C136.77 86.7269 79.5991 143.907 79.5991 214.187V333.682C79.5991 338.078 83.1674 341.646 87.5627 341.646H207.04C277.306 341.646 334.48 284.465 334.48 214.187C334.48 143.908 277.304 86.7269 207.04 86.7269ZM215.003 246.05H151.282C146.886 246.05 143.317 242.481 143.317 238.085C143.317 233.687 146.886 230.118 151.282 230.118H215.003C219.4 230.118 222.968 233.687 222.968 238.085C222.968 242.483 219.401 246.05 215.003 246.05ZM262.794 198.255H151.282C146.886 198.255 143.317 194.686 143.317 190.287C143.317 185.891 146.886 182.322 151.282 182.322H262.794C267.189 182.322 270.758 185.891 270.758 190.287C270.758 194.686 267.189 198.255 262.794 198.255Z" fill="#F0F2F3"/>
</g>
</g>
<path d="M164.647 22.8191C84.5545 22.8191 19.3862 87.9988 19.3862 168.103V304.305C19.3862 309.321 23.4524 313.387 28.4639 313.387H164.647C244.742 313.387 309.91 248.21 309.91 168.103C309.91 87.9988 244.743 22.8191 164.647 22.8191Z" fill="#E6EAED"/>
<path d="M93.2812 126H90.3281V118.418H82.6992V126H79.7344V108.938H82.6992V116.039H90.3281V108.938H93.2812V126ZM95.9883 119.543C95.9883 118.301 96.2344 117.184 96.7266 116.191C97.2188 115.191 97.9102 114.426 98.8008 113.895C99.6914 113.355 100.715 113.086 101.871 113.086C103.582 113.086 104.969 113.637 106.031 114.738C107.102 115.84 107.68 117.301 107.766 119.121L107.777 119.789C107.777 121.039 107.535 122.156 107.051 123.141C106.574 124.125 105.887 124.887 104.988 125.426C104.098 125.965 103.066 126.234 101.895 126.234C100.105 126.234 98.6719 125.641 97.5938 124.453C96.5234 123.258 95.9883 121.668 95.9883 119.684V119.543ZM98.8359 119.789C98.8359 121.094 99.1055 122.117 99.6445 122.859C100.184 123.594 100.934 123.961 101.895 123.961C102.855 123.961 103.602 123.586 104.133 122.836C104.672 122.086 104.941 120.988 104.941 119.543C104.941 118.262 104.664 117.246 104.109 116.496C103.562 115.746 102.816 115.371 101.871 115.371C100.941 115.371 100.203 115.742 99.6562 116.484C99.1094 117.219 98.8359 118.32 98.8359 119.789ZM113.215 126H110.367V108H113.215V126ZM123.902 126C123.777 125.758 123.668 125.363 123.574 124.816C122.668 125.762 121.559 126.234 120.246 126.234C118.973 126.234 117.934 125.871 117.129 125.145C116.324 124.418 115.922 123.52 115.922 122.449C115.922 121.098 116.422 120.062 117.422 119.344C118.43 118.617 119.867 118.254 121.734 118.254H123.48V117.422C123.48 116.766 123.297 116.242 122.93 115.852C122.562 115.453 122.004 115.254 121.254 115.254C120.605 115.254 120.074 115.418 119.66 115.746C119.246 116.066 119.039 116.477 119.039 116.977H116.191C116.191 116.281 116.422 115.633 116.883 115.031C117.344 114.422 117.969 113.945 118.758 113.602C119.555 113.258 120.441 113.086 121.418 113.086C122.902 113.086 124.086 113.461 124.969 114.211C125.852 114.953 126.305 116 126.328 117.352V123.07C126.328 124.211 126.488 125.121 126.809 125.801V126H123.902ZM120.773 123.949C121.336 123.949 121.863 123.812 122.355 123.539C122.855 123.266 123.23 122.898 123.48 122.438V120.047H121.945C120.891 120.047 120.098 120.23 119.566 120.598C119.035 120.965 118.77 121.484 118.77 122.156C118.77 122.703 118.949 123.141 119.309 123.469C119.676 123.789 120.164 123.949 120.773 123.949ZM149.098 126H146.133L138.527 113.895V126H135.562V108.938H138.527L146.156 121.09V108.938H149.098V126ZM151.793 119.543C151.793 118.301 152.039 117.184 152.531 116.191C153.023 115.191 153.715 114.426 154.605 113.895C155.496 113.355 156.52 113.086 157.676 113.086C159.387 113.086 160.773 113.637 161.836 114.738C162.906 115.84 163.484 117.301 163.57 119.121L163.582 119.789C163.582 121.039 163.34 122.156 162.855 123.141C162.379 124.125 161.691 124.887 160.793 125.426C159.902 125.965 158.871 126.234 157.699 126.234C155.91 126.234 154.477 125.641 153.398 124.453C152.328 123.258 151.793 121.668 151.793 119.684V119.543ZM154.641 119.789C154.641 121.094 154.91 122.117 155.449 122.859C155.988 123.594 156.738 123.961 157.699 123.961C158.66 123.961 159.406 123.586 159.938 122.836C160.477 122.086 160.746 120.988 160.746 119.543C160.746 118.262 160.469 117.246 159.914 116.496C159.367 115.746 158.621 115.371 157.676 115.371C156.746 115.371 156.008 115.742 155.461 116.484C154.914 117.219 154.641 118.32 154.641 119.789ZM168.668 113.32L168.75 114.645C169.641 113.605 170.859 113.086 172.406 113.086C174.102 113.086 175.262 113.734 175.887 115.031C176.809 113.734 178.105 113.086 179.777 113.086C181.176 113.086 182.215 113.473 182.895 114.246C183.582 115.02 183.934 116.16 183.949 117.668V126H181.102V117.75C181.102 116.945 180.926 116.355 180.574 115.98C180.223 115.605 179.641 115.418 178.828 115.418C178.18 115.418 177.648 115.594 177.234 115.945C176.828 116.289 176.543 116.742 176.379 117.305L176.391 126H173.543V117.656C173.504 116.164 172.742 115.418 171.258 115.418C170.117 115.418 169.309 115.883 168.832 116.812V126H165.984V113.32H168.668ZM198 119.789C198 121.758 197.559 123.324 196.676 124.488C195.801 125.652 194.594 126.234 193.055 126.234C191.57 126.234 190.414 125.699 189.586 124.629L189.445 126H186.867V108H189.715V114.539C190.535 113.57 191.641 113.086 193.031 113.086C194.578 113.086 195.793 113.66 196.676 114.809C197.559 115.957 198 117.562 198 119.625V119.789ZM195.152 119.543C195.152 118.168 194.91 117.137 194.426 116.449C193.941 115.762 193.238 115.418 192.316 115.418C191.082 115.418 190.215 115.957 189.715 117.035V122.262C190.223 123.363 191.098 123.914 192.34 123.914C193.23 123.914 193.918 123.582 194.402 122.918C194.887 122.254 195.137 121.25 195.152 119.906V119.543ZM207.035 115.922C206.66 115.859 206.273 115.828 205.875 115.828C204.57 115.828 203.691 116.328 203.238 117.328V126H200.391V113.32H203.109L203.18 114.738C203.867 113.637 204.82 113.086 206.039 113.086C206.445 113.086 206.781 113.141 207.047 113.25L207.035 115.922ZM214.184 126.234C212.379 126.234 210.914 125.668 209.789 124.535C208.672 123.395 208.113 121.879 208.113 119.988V119.637C208.113 118.371 208.355 117.242 208.84 116.25C209.332 115.25 210.02 114.473 210.902 113.918C211.785 113.363 212.77 113.086 213.855 113.086C215.582 113.086 216.914 113.637 217.852 114.738C218.797 115.84 219.27 117.398 219.27 119.414V120.562H210.984C211.07 121.609 211.418 122.438 212.027 123.047C212.645 123.656 213.418 123.961 214.348 123.961C215.652 123.961 216.715 123.434 217.535 122.379L219.07 123.844C218.562 124.602 217.883 125.191 217.031 125.613C216.188 126.027 215.238 126.234 214.184 126.234ZM213.844 115.371C213.062 115.371 212.43 115.645 211.945 116.191C211.469 116.738 211.164 117.5 211.031 118.477H216.457V118.266C216.395 117.312 216.141 116.594 215.695 116.109C215.25 115.617 214.633 115.371 213.844 115.371ZM89.2852 150.027H82.6758L81.293 154H78.2109L84.6562 136.938H87.3164L93.7734 154H90.6797L89.2852 150.027ZM83.5078 147.637H88.4531L85.9805 140.559L83.5078 147.637ZM94.9102 147.566C94.9102 145.613 95.3633 144.047 96.2695 142.867C97.1758 141.68 98.3906 141.086 99.9141 141.086C101.258 141.086 102.344 141.555 103.172 142.492V136H106.02V154H103.441L103.301 152.688C102.449 153.719 101.312 154.234 99.8906 154.234C98.4062 154.234 97.2031 153.637 96.2812 152.441C95.3672 151.246 94.9102 149.621 94.9102 147.566ZM97.7578 147.812C97.7578 149.102 98.0039 150.109 98.4961 150.836C98.9961 151.555 99.7031 151.914 100.617 151.914C101.781 151.914 102.633 151.395 103.172 150.355V144.941C102.648 143.926 101.805 143.418 100.641 143.418C99.7188 143.418 99.0078 143.785 98.5078 144.52C98.0078 145.246 97.7578 146.344 97.7578 147.812ZM111.668 141.32L111.75 142.645C112.641 141.605 113.859 141.086 115.406 141.086C117.102 141.086 118.262 141.734 118.887 143.031C119.809 141.734 121.105 141.086 122.777 141.086C124.176 141.086 125.215 141.473 125.895 142.246C126.582 143.02 126.934 144.16 126.949 145.668V154H124.102V145.75C124.102 144.945 123.926 144.355 123.574 143.98C123.223 143.605 122.641 143.418 121.828 143.418C121.18 143.418 120.648 143.594 120.234 143.945C119.828 144.289 119.543 144.742 119.379 145.305L119.391 154H116.543V145.656C116.504 144.164 115.742 143.418 114.258 143.418C113.117 143.418 112.309 143.883 111.832 144.812V154H108.984V141.32H111.668ZM132.902 154H130.055V141.32H132.902V154ZM129.879 138.027C129.879 137.59 130.016 137.227 130.289 136.938C130.57 136.648 130.969 136.504 131.484 136.504C132 136.504 132.398 136.648 132.68 136.938C132.961 137.227 133.102 137.59 133.102 138.027C133.102 138.457 132.961 138.816 132.68 139.105C132.398 139.387 132 139.527 131.484 139.527C130.969 139.527 130.57 139.387 130.289 139.105C130.016 138.816 129.879 138.457 129.879 138.027ZM138.656 141.32L138.738 142.785C139.676 141.652 140.906 141.086 142.43 141.086C145.07 141.086 146.414 142.598 146.461 145.621V154H143.613V145.785C143.613 144.98 143.438 144.387 143.086 144.004C142.742 143.613 142.176 143.418 141.387 143.418C140.238 143.418 139.383 143.938 138.82 144.977V154H135.973V141.32H138.656ZM152.402 154H149.555V141.32H152.402V154ZM149.379 138.027C149.379 137.59 149.516 137.227 149.789 136.938C150.07 136.648 150.469 136.504 150.984 136.504C151.5 136.504 151.898 136.648 152.18 136.938C152.461 137.227 152.602 137.59 152.602 138.027C152.602 138.457 152.461 138.816 152.18 139.105C151.898 139.387 151.5 139.527 150.984 139.527C150.469 139.527 150.07 139.387 149.789 139.105C149.516 138.816 149.379 138.457 149.379 138.027ZM162.621 150.555C162.621 150.047 162.41 149.66 161.988 149.395C161.574 149.129 160.883 148.895 159.914 148.691C158.945 148.488 158.137 148.23 157.488 147.918C156.066 147.23 155.355 146.234 155.355 144.93C155.355 143.836 155.816 142.922 156.738 142.188C157.66 141.453 158.832 141.086 160.254 141.086C161.77 141.086 162.992 141.461 163.922 142.211C164.859 142.961 165.328 143.934 165.328 145.129H162.48C162.48 144.582 162.277 144.129 161.871 143.77C161.465 143.402 160.926 143.219 160.254 143.219C159.629 143.219 159.117 143.363 158.719 143.652C158.328 143.941 158.133 144.328 158.133 144.812C158.133 145.25 158.316 145.59 158.684 145.832C159.051 146.074 159.793 146.32 160.91 146.57C162.027 146.812 162.902 147.105 163.535 147.449C164.176 147.785 164.648 148.191 164.953 148.668C165.266 149.145 165.422 149.723 165.422 150.402C165.422 151.543 164.949 152.469 164.004 153.18C163.059 153.883 161.82 154.234 160.289 154.234C159.25 154.234 158.324 154.047 157.512 153.672C156.699 153.297 156.066 152.781 155.613 152.125C155.16 151.469 154.934 150.762 154.934 150.004H157.699C157.738 150.676 157.992 151.195 158.461 151.562C158.93 151.922 159.551 152.102 160.324 152.102C161.074 152.102 161.645 151.961 162.035 151.68C162.426 151.391 162.621 151.016 162.621 150.555ZM171.48 138.238V141.32H173.719V143.43H171.48V150.508C171.48 150.992 171.574 151.344 171.762 151.562C171.957 151.773 172.301 151.879 172.793 151.879C173.121 151.879 173.453 151.84 173.789 151.762V153.965C173.141 154.145 172.516 154.234 171.914 154.234C169.727 154.234 168.633 153.027 168.633 150.613V143.43H166.547V141.32H168.633V138.238H171.48ZM182.543 143.922C182.168 143.859 181.781 143.828 181.383 143.828C180.078 143.828 179.199 144.328 178.746 145.328V154H175.898V141.32H178.617L178.688 142.738C179.375 141.637 180.328 141.086 181.547 141.086C181.953 141.086 182.289 141.141 182.555 141.25L182.543 143.922ZM191.566 154C191.441 153.758 191.332 153.363 191.238 152.816C190.332 153.762 189.223 154.234 187.91 154.234C186.637 154.234 185.598 153.871 184.793 153.145C183.988 152.418 183.586 151.52 183.586 150.449C183.586 149.098 184.086 148.062 185.086 147.344C186.094 146.617 187.531 146.254 189.398 146.254H191.145V145.422C191.145 144.766 190.961 144.242 190.594 143.852C190.227 143.453 189.668 143.254 188.918 143.254C188.27 143.254 187.738 143.418 187.324 143.746C186.91 144.066 186.703 144.477 186.703 144.977H183.855C183.855 144.281 184.086 143.633 184.547 143.031C185.008 142.422 185.633 141.945 186.422 141.602C187.219 141.258 188.105 141.086 189.082 141.086C190.566 141.086 191.75 141.461 192.633 142.211C193.516 142.953 193.969 144 193.992 145.352V151.07C193.992 152.211 194.152 153.121 194.473 153.801V154H191.566ZM188.438 151.949C189 151.949 189.527 151.812 190.02 151.539C190.52 151.266 190.895 150.898 191.145 150.438V148.047H189.609C188.555 148.047 187.762 148.23 187.23 148.598C186.699 148.965 186.434 149.484 186.434 150.156C186.434 150.703 186.613 151.141 186.973 151.469C187.34 151.789 187.828 151.949 188.438 151.949ZM196.441 147.566C196.441 145.613 196.895 144.047 197.801 142.867C198.707 141.68 199.922 141.086 201.445 141.086C202.789 141.086 203.875 141.555 204.703 142.492V136H207.551V154H204.973L204.832 152.688C203.98 153.719 202.844 154.234 201.422 154.234C199.938 154.234 198.734 153.637 197.812 152.441C196.898 151.246 196.441 149.621 196.441 147.566ZM199.289 147.812C199.289 149.102 199.535 150.109 200.027 150.836C200.527 151.555 201.234 151.914 202.148 151.914C203.312 151.914 204.164 151.395 204.703 150.355V144.941C204.18 143.926 203.336 143.418 202.172 143.418C201.25 143.418 200.539 143.785 200.039 144.52C199.539 145.246 199.289 146.344 199.289 147.812ZM209.988 147.543C209.988 146.301 210.234 145.184 210.727 144.191C211.219 143.191 211.91 142.426 212.801 141.895C213.691 141.355 214.715 141.086 215.871 141.086C217.582 141.086 218.969 141.637 220.031 142.738C221.102 143.84 221.68 145.301 221.766 147.121L221.777 147.789C221.777 149.039 221.535 150.156 221.051 151.141C220.574 152.125 219.887 152.887 218.988 153.426C218.098 153.965 217.066 154.234 215.895 154.234C214.105 154.234 212.672 153.641 211.594 152.453C210.523 151.258 209.988 149.668 209.988 147.684V147.543ZM212.836 147.789C212.836 149.094 213.105 150.117 213.645 150.859C214.184 151.594 214.934 151.961 215.895 151.961C216.855 151.961 217.602 151.586 218.133 150.836C218.672 150.086 218.941 148.988 218.941 147.543C218.941 146.262 218.664 145.246 218.109 144.496C217.562 143.746 216.816 143.371 215.871 143.371C214.941 143.371 214.203 143.742 213.656 144.484C213.109 145.219 212.836 146.32 212.836 147.789ZM230.824 143.922C230.449 143.859 230.062 143.828 229.664 143.828C228.359 143.828 227.48 144.328 227.027 145.328V154H224.18V141.32H226.898L226.969 142.738C227.656 141.637 228.609 141.086 229.828 141.086C230.234 141.086 230.57 141.141 230.836 141.25L230.824 143.922ZM232.359 151C232.891 151 233.301 151.152 233.59 151.457C233.879 151.754 234.023 152.129 234.023 152.582C234.023 153.027 233.879 153.398 233.59 153.695C233.301 153.984 232.891 154.129 232.359 154.129C231.852 154.129 231.449 153.984 231.152 153.695C230.855 153.406 230.707 153.035 230.707 152.582C230.707 152.129 230.852 151.754 231.141 151.457C231.43 151.152 231.836 151 232.359 151ZM79.7344 182V164.938H85.582C87.5117 164.938 88.9805 165.324 89.9883 166.098C90.9961 166.871 91.5 168.023 91.5 169.555C91.5 170.336 91.2891 171.039 90.8672 171.664C90.4453 172.289 89.8281 172.773 89.0156 173.117C89.9375 173.367 90.6484 173.84 91.1484 174.535C91.6562 175.223 91.9102 176.051 91.9102 177.02C91.9102 178.621 91.3945 179.852 90.3633 180.711C89.3398 181.57 87.8711 182 85.957 182H79.7344ZM82.6992 174.301V179.633H85.9922C86.9219 179.633 87.6484 179.402 88.1719 178.941C88.6953 178.48 88.957 177.84 88.957 177.02C88.957 175.246 88.0508 174.34 86.2383 174.301H82.6992ZM82.6992 172.121H85.6055C86.5273 172.121 87.2461 171.914 87.7617 171.5C88.2852 171.078 88.5469 170.484 88.5469 169.719C88.5469 168.875 88.3047 168.266 87.8203 167.891C87.3438 167.516 86.5977 167.328 85.582 167.328H82.6992V172.121ZM97.6289 182H94.7812V169.32H97.6289V182ZM94.6055 166.027C94.6055 165.59 94.7422 165.227 95.0156 164.938C95.2969 164.648 95.6953 164.504 96.2109 164.504C96.7266 164.504 97.125 164.648 97.4062 164.938C97.6875 165.227 97.8281 165.59 97.8281 166.027C97.8281 166.457 97.6875 166.816 97.4062 167.105C97.125 167.387 96.7266 167.527 96.2109 167.527C95.6953 167.527 95.2969 167.387 95.0156 167.105C94.7422 166.816 94.6055 166.457 94.6055 166.027ZM106.324 182.234C104.52 182.234 103.055 181.668 101.93 180.535C100.812 179.395 100.254 177.879 100.254 175.988V175.637C100.254 174.371 100.496 173.242 100.98 172.25C101.473 171.25 102.16 170.473 103.043 169.918C103.926 169.363 104.91 169.086 105.996 169.086C107.723 169.086 109.055 169.637 109.992 170.738C110.938 171.84 111.41 173.398 111.41 175.414V176.562H103.125C103.211 177.609 103.559 178.438 104.168 179.047C104.785 179.656 105.559 179.961 106.488 179.961C107.793 179.961 108.855 179.434 109.676 178.379L111.211 179.844C110.703 180.602 110.023 181.191 109.172 181.613C108.328 182.027 107.379 182.234 106.324 182.234ZM105.984 171.371C105.203 171.371 104.57 171.645 104.086 172.191C103.609 172.738 103.305 173.5 103.172 174.477H108.598V174.266C108.535 173.312 108.281 172.594 107.836 172.109C107.391 171.617 106.773 171.371 105.984 171.371ZM116.273 169.32L116.355 170.785C117.293 169.652 118.523 169.086 120.047 169.086C122.688 169.086 124.031 170.598 124.078 173.621V182H121.23V173.785C121.23 172.98 121.055 172.387 120.703 172.004C120.359 171.613 119.793 171.418 119.004 171.418C117.855 171.418 117 171.938 116.438 172.977V182H113.59V169.32H116.273ZM131.461 178.391L134.145 169.32H137.086L132.691 182H130.219L125.789 169.32H128.742L131.461 178.391ZM144.293 182.234C142.488 182.234 141.023 181.668 139.898 180.535C138.781 179.395 138.223 177.879 138.223 175.988V175.637C138.223 174.371 138.465 173.242 138.949 172.25C139.441 171.25 140.129 170.473 141.012 169.918C141.895 169.363 142.879 169.086 143.965 169.086C145.691 169.086 147.023 169.637 147.961 170.738C148.906 171.84 149.379 173.398 149.379 175.414V176.562H141.094C141.18 177.609 141.527 178.438 142.137 179.047C142.754 179.656 143.527 179.961 144.457 179.961C145.762 179.961 146.824 179.434 147.645 178.379L149.18 179.844C148.672 180.602 147.992 181.191 147.141 181.613C146.297 182.027 145.348 182.234 144.293 182.234ZM143.953 171.371C143.172 171.371 142.539 171.645 142.055 172.191C141.578 172.738 141.273 173.5 141.141 174.477H146.566V174.266C146.504 173.312 146.25 172.594 145.805 172.109C145.359 171.617 144.742 171.371 143.953 171.371ZM154.242 169.32L154.324 170.785C155.262 169.652 156.492 169.086 158.016 169.086C160.656 169.086 162 170.598 162.047 173.621V182H159.199V173.785C159.199 172.98 159.023 172.387 158.672 172.004C158.328 171.613 157.762 171.418 156.973 171.418C155.824 171.418 154.969 171.938 154.406 172.977V182H151.559V169.32H154.242ZM167.988 182H165.141V169.32H167.988V182ZM164.965 166.027C164.965 165.59 165.102 165.227 165.375 164.938C165.656 164.648 166.055 164.504 166.57 164.504C167.086 164.504 167.484 164.648 167.766 164.938C168.047 165.227 168.188 165.59 168.188 166.027C168.188 166.457 168.047 166.816 167.766 167.105C167.484 167.387 167.086 167.527 166.57 167.527C166.055 167.527 165.656 167.387 165.375 167.105C165.102 166.816 164.965 166.457 164.965 166.027ZM170.566 175.566C170.566 173.613 171.02 172.047 171.926 170.867C172.832 169.68 174.047 169.086 175.57 169.086C176.914 169.086 178 169.555 178.828 170.492V164H181.676V182H179.098L178.957 180.688C178.105 181.719 176.969 182.234 175.547 182.234C174.062 182.234 172.859 181.637 171.938 180.441C171.023 179.246 170.566 177.621 170.566 175.566ZM173.414 175.812C173.414 177.102 173.66 178.109 174.152 178.836C174.652 179.555 175.359 179.914 176.273 179.914C177.438 179.914 178.289 179.395 178.828 178.355V172.941C178.305 171.926 177.461 171.418 176.297 171.418C175.375 171.418 174.664 171.785 174.164 172.52C173.664 173.246 173.414 174.344 173.414 175.812ZM184.113 175.543C184.113 174.301 184.359 173.184 184.852 172.191C185.344 171.191 186.035 170.426 186.926 169.895C187.816 169.355 188.84 169.086 189.996 169.086C191.707 169.086 193.094 169.637 194.156 170.738C195.227 171.84 195.805 173.301 195.891 175.121L195.902 175.789C195.902 177.039 195.66 178.156 195.176 179.141C194.699 180.125 194.012 180.887 193.113 181.426C192.223 181.965 191.191 182.234 190.02 182.234C188.23 182.234 186.797 181.641 185.719 180.453C184.648 179.258 184.113 177.668 184.113 175.684V175.543ZM186.961 175.789C186.961 177.094 187.23 178.117 187.77 178.859C188.309 179.594 189.059 179.961 190.02 179.961C190.98 179.961 191.727 179.586 192.258 178.836C192.797 178.086 193.066 176.988 193.066 175.543C193.066 174.262 192.789 173.246 192.234 172.496C191.688 171.746 190.941 171.371 189.996 171.371C189.066 171.371 188.328 171.742 187.781 172.484C187.234 173.219 186.961 174.32 186.961 175.789ZM211.863 182C211.738 181.758 211.629 181.363 211.535 180.816C210.629 181.762 209.52 182.234 208.207 182.234C206.934 182.234 205.895 181.871 205.09 181.145C204.285 180.418 203.883 179.52 203.883 178.449C203.883 177.098 204.383 176.062 205.383 175.344C206.391 174.617 207.828 174.254 209.695 174.254H211.441V173.422C211.441 172.766 211.258 172.242 210.891 171.852C210.523 171.453 209.965 171.254 209.215 171.254C208.566 171.254 208.035 171.418 207.621 171.746C207.207 172.066 207 172.477 207 172.977H204.152C204.152 172.281 204.383 171.633 204.844 171.031C205.305 170.422 205.93 169.945 206.719 169.602C207.516 169.258 208.402 169.086 209.379 169.086C210.863 169.086 212.047 169.461 212.93 170.211C213.812 170.953 214.266 172 214.289 173.352V179.07C214.289 180.211 214.449 181.121 214.77 181.801V182H211.863ZM208.734 179.949C209.297 179.949 209.824 179.812 210.316 179.539C210.816 179.266 211.191 178.898 211.441 178.438V176.047H209.906C208.852 176.047 208.059 176.23 207.527 176.598C206.996 176.965 206.73 177.484 206.73 178.156C206.73 178.703 206.91 179.141 207.27 179.469C207.637 179.789 208.125 179.949 208.734 179.949ZM226.816 166.238V169.32H229.055V171.43H226.816V178.508C226.816 178.992 226.91 179.344 227.098 179.562C227.293 179.773 227.637 179.879 228.129 179.879C228.457 179.879 228.789 179.84 229.125 179.762V181.965C228.477 182.145 227.852 182.234 227.25 182.234C225.062 182.234 223.969 181.027 223.969 178.613V171.43H221.883V169.32H223.969V166.238H226.816ZM238.922 180.758C238.086 181.742 236.898 182.234 235.359 182.234C233.984 182.234 232.941 181.832 232.23 181.027C231.527 180.223 231.176 179.059 231.176 177.535V169.32H234.023V177.5C234.023 179.109 234.691 179.914 236.027 179.914C237.41 179.914 238.344 179.418 238.828 178.426V169.32H241.676V182H238.992L238.922 180.758ZM90.5625 203.789C90.5625 205.75 90.1172 207.316 89.2266 208.488C88.3359 209.652 87.1406 210.234 85.6406 210.234C84.25 210.234 83.1367 209.777 82.3008 208.863V214.875H79.4531V197.32H82.0781L82.1953 198.609C83.0312 197.594 84.168 197.086 85.6055 197.086C87.1523 197.086 88.3633 197.664 89.2383 198.82C90.1211 199.969 90.5625 201.566 90.5625 203.613V203.789ZM87.7266 203.543C87.7266 202.277 87.4727 201.273 86.9648 200.531C86.4648 199.789 85.7461 199.418 84.8086 199.418C83.6445 199.418 82.8086 199.898 82.3008 200.859V206.484C82.8164 207.469 83.6602 207.961 84.832 207.961C85.7383 207.961 86.4453 207.598 86.9531 206.871C87.4688 206.137 87.7266 205.027 87.7266 203.543ZM100.559 210C100.434 209.758 100.324 209.363 100.23 208.816C99.3242 209.762 98.2148 210.234 96.9023 210.234C95.6289 210.234 94.5898 209.871 93.7852 209.145C92.9805 208.418 92.5781 207.52 92.5781 206.449C92.5781 205.098 93.0781 204.062 94.0781 203.344C95.0859 202.617 96.5234 202.254 98.3906 202.254H100.137V201.422C100.137 200.766 99.9531 200.242 99.5859 199.852C99.2188 199.453 98.6602 199.254 97.9102 199.254C97.2617 199.254 96.7305 199.418 96.3164 199.746C95.9023 200.066 95.6953 200.477 95.6953 200.977H92.8477C92.8477 200.281 93.0781 199.633 93.5391 199.031C94 198.422 94.625 197.945 95.4141 197.602C96.2109 197.258 97.0977 197.086 98.0742 197.086C99.5586 197.086 100.742 197.461 101.625 198.211C102.508 198.953 102.961 200 102.984 201.352V207.07C102.984 208.211 103.145 209.121 103.465 209.801V210H100.559ZM97.4297 207.949C97.9922 207.949 98.5195 207.812 99.0117 207.539C99.5117 207.266 99.8867 206.898 100.137 206.438V204.047H98.6016C97.5469 204.047 96.7539 204.23 96.2227 204.598C95.6914 204.965 95.4258 205.484 95.4258 206.156C95.4258 206.703 95.6055 207.141 95.9648 207.469C96.332 207.789 96.8203 207.949 97.4297 207.949ZM108.609 197.32L108.691 198.785C109.629 197.652 110.859 197.086 112.383 197.086C115.023 197.086 116.367 198.598 116.414 201.621V210H113.566V201.785C113.566 200.98 113.391 200.387 113.039 200.004C112.695 199.613 112.129 199.418 111.34 199.418C110.191 199.418 109.336 199.938 108.773 200.977V210H105.926V197.32H108.609ZM124.91 210.234C123.105 210.234 121.641 209.668 120.516 208.535C119.398 207.395 118.84 205.879 118.84 203.988V203.637C118.84 202.371 119.082 201.242 119.566 200.25C120.059 199.25 120.746 198.473 121.629 197.918C122.512 197.363 123.496 197.086 124.582 197.086C126.309 197.086 127.641 197.637 128.578 198.738C129.523 199.84 129.996 201.398 129.996 203.414V204.562H121.711C121.797 205.609 122.145 206.438 122.754 207.047C123.371 207.656 124.145 207.961 125.074 207.961C126.379 207.961 127.441 207.434 128.262 206.379L129.797 207.844C129.289 208.602 128.609 209.191 127.758 209.613C126.914 210.027 125.965 210.234 124.91 210.234ZM124.57 199.371C123.789 199.371 123.156 199.645 122.672 200.191C122.195 200.738 121.891 201.5 121.758 202.477H127.184V202.266C127.121 201.312 126.867 200.594 126.422 200.109C125.977 199.617 125.359 199.371 124.57 199.371ZM135.246 210H132.398V192H135.246V210ZM143.801 203.566C143.801 201.613 144.254 200.047 145.16 198.867C146.066 197.68 147.281 197.086 148.805 197.086C150.148 197.086 151.234 197.555 152.062 198.492V192H154.91V210H152.332L152.191 208.688C151.34 209.719 150.203 210.234 148.781 210.234C147.297 210.234 146.094 209.637 145.172 208.441C144.258 207.246 143.801 205.621 143.801 203.566ZM146.648 203.812C146.648 205.102 146.895 206.109 147.387 206.836C147.887 207.555 148.594 207.914 149.508 207.914C150.672 207.914 151.523 207.395 152.062 206.355V200.941C151.539 199.926 150.695 199.418 149.531 199.418C148.609 199.418 147.898 199.785 147.398 200.52C146.898 201.246 146.648 202.344 146.648 203.812ZM163.465 210.234C161.66 210.234 160.195 209.668 159.07 208.535C157.953 207.395 157.395 205.879 157.395 203.988V203.637C157.395 202.371 157.637 201.242 158.121 200.25C158.613 199.25 159.301 198.473 160.184 197.918C161.066 197.363 162.051 197.086 163.137 197.086C164.863 197.086 166.195 197.637 167.133 198.738C168.078 199.84 168.551 201.398 168.551 203.414V204.562H160.266C160.352 205.609 160.699 206.438 161.309 207.047C161.926 207.656 162.699 207.961 163.629 207.961C164.934 207.961 165.996 207.434 166.816 206.379L168.352 207.844C167.844 208.602 167.164 209.191 166.312 209.613C165.469 210.027 164.52 210.234 163.465 210.234ZM163.125 199.371C162.344 199.371 161.711 199.645 161.227 200.191C160.75 200.738 160.445 201.5 160.312 202.477H165.738V202.266C165.676 201.312 165.422 200.594 164.977 200.109C164.531 199.617 163.914 199.371 163.125 199.371ZM87.0352 238C86.9102 237.758 86.8008 237.363 86.707 236.816C85.8008 237.762 84.6914 238.234 83.3789 238.234C82.1055 238.234 81.0664 237.871 80.2617 237.145C79.457 236.418 79.0547 235.52 79.0547 234.449C79.0547 233.098 79.5547 232.062 80.5547 231.344C81.5625 230.617 83 230.254 84.8672 230.254H86.6133V229.422C86.6133 228.766 86.4297 228.242 86.0625 227.852C85.6953 227.453 85.1367 227.254 84.3867 227.254C83.7383 227.254 83.207 227.418 82.793 227.746C82.3789 228.066 82.1719 228.477 82.1719 228.977H79.3242C79.3242 228.281 79.5547 227.633 80.0156 227.031C80.4766 226.422 81.1016 225.945 81.8906 225.602C82.6875 225.258 83.5742 225.086 84.5508 225.086C86.0352 225.086 87.2188 225.461 88.1016 226.211C88.9844 226.953 89.4375 228 89.4609 229.352V235.07C89.4609 236.211 89.6211 237.121 89.9414 237.801V238H87.0352ZM83.9062 235.949C84.4688 235.949 84.9961 235.812 85.4883 235.539C85.9883 235.266 86.3633 234.898 86.6133 234.438V232.047H85.0781C84.0234 232.047 83.2305 232.23 82.6992 232.598C82.168 232.965 81.9023 233.484 81.9023 234.156C81.9023 234.703 82.082 235.141 82.4414 235.469C82.8086 235.789 83.2969 235.949 83.9062 235.949ZM91.9102 231.566C91.9102 229.613 92.3633 228.047 93.2695 226.867C94.1758 225.68 95.3906 225.086 96.9141 225.086C98.2578 225.086 99.3438 225.555 100.172 226.492V220H103.02V238H100.441L100.301 236.688C99.4492 237.719 98.3125 238.234 96.8906 238.234C95.4062 238.234 94.2031 237.637 93.2812 236.441C92.3672 235.246 91.9102 233.621 91.9102 231.566ZM94.7578 231.812C94.7578 233.102 95.0039 234.109 95.4961 234.836C95.9961 235.555 96.7031 235.914 97.6172 235.914C98.7812 235.914 99.6328 235.395 100.172 234.355V228.941C99.6484 227.926 98.8047 227.418 97.6406 227.418C96.7188 227.418 96.0078 227.785 95.5078 228.52C95.0078 229.246 94.7578 230.344 94.7578 231.812ZM108.668 225.32L108.75 226.645C109.641 225.605 110.859 225.086 112.406 225.086C114.102 225.086 115.262 225.734 115.887 227.031C116.809 225.734 118.105 225.086 119.777 225.086C121.176 225.086 122.215 225.473 122.895 226.246C123.582 227.02 123.934 228.16 123.949 229.668V238H121.102V229.75C121.102 228.945 120.926 228.355 120.574 227.98C120.223 227.605 119.641 227.418 118.828 227.418C118.18 227.418 117.648 227.594 117.234 227.945C116.828 228.289 116.543 228.742 116.379 229.305L116.391 238H113.543V229.656C113.504 228.164 112.742 227.418 111.258 227.418C110.117 227.418 109.309 227.883 108.832 228.812V238H105.984V225.32H108.668ZM129.902 238H127.055V225.32H129.902V238ZM126.879 222.027C126.879 221.59 127.016 221.227 127.289 220.938C127.57 220.648 127.969 220.504 128.484 220.504C129 220.504 129.398 220.648 129.68 220.938C129.961 221.227 130.102 221.59 130.102 222.027C130.102 222.457 129.961 222.816 129.68 223.105C129.398 223.387 129 223.527 128.484 223.527C127.969 223.527 127.57 223.387 127.289 223.105C127.016 222.816 126.879 222.457 126.879 222.027ZM135.656 225.32L135.738 226.785C136.676 225.652 137.906 225.086 139.43 225.086C142.07 225.086 143.414 226.598 143.461 229.621V238H140.613V229.785C140.613 228.98 140.438 228.387 140.086 228.004C139.742 227.613 139.176 227.418 138.387 227.418C137.238 227.418 136.383 227.938 135.82 228.977V238H132.973V225.32H135.656ZM149.402 238H146.555V225.32H149.402V238ZM146.379 222.027C146.379 221.59 146.516 221.227 146.789 220.938C147.07 220.648 147.469 220.504 147.984 220.504C148.5 220.504 148.898 220.648 149.18 220.938C149.461 221.227 149.602 221.59 149.602 222.027C149.602 222.457 149.461 222.816 149.18 223.105C148.898 223.387 148.5 223.527 147.984 223.527C147.469 223.527 147.07 223.387 146.789 223.105C146.516 222.816 146.379 222.457 146.379 222.027ZM159.621 234.555C159.621 234.047 159.41 233.66 158.988 233.395C158.574 233.129 157.883 232.895 156.914 232.691C155.945 232.488 155.137 232.23 154.488 231.918C153.066 231.23 152.355 230.234 152.355 228.93C152.355 227.836 152.816 226.922 153.738 226.188C154.66 225.453 155.832 225.086 157.254 225.086C158.77 225.086 159.992 225.461 160.922 226.211C161.859 226.961 162.328 227.934 162.328 229.129H159.48C159.48 228.582 159.277 228.129 158.871 227.77C158.465 227.402 157.926 227.219 157.254 227.219C156.629 227.219 156.117 227.363 155.719 227.652C155.328 227.941 155.133 228.328 155.133 228.812C155.133 229.25 155.316 229.59 155.684 229.832C156.051 230.074 156.793 230.32 157.91 230.57C159.027 230.812 159.902 231.105 160.535 231.449C161.176 231.785 161.648 232.191 161.953 232.668C162.266 233.145 162.422 233.723 162.422 234.402C162.422 235.543 161.949 236.469 161.004 237.18C160.059 237.883 158.82 238.234 157.289 238.234C156.25 238.234 155.324 238.047 154.512 237.672C153.699 237.297 153.066 236.781 152.613 236.125C152.16 235.469 151.934 234.762 151.934 234.004H154.699C154.738 234.676 154.992 235.195 155.461 235.562C155.93 235.922 156.551 236.102 157.324 236.102C158.074 236.102 158.645 235.961 159.035 235.68C159.426 235.391 159.621 235.016 159.621 234.555ZM168.48 222.238V225.32H170.719V227.43H168.48V234.508C168.48 234.992 168.574 235.344 168.762 235.562C168.957 235.773 169.301 235.879 169.793 235.879C170.121 235.879 170.453 235.84 170.789 235.762V237.965C170.141 238.145 169.516 238.234 168.914 238.234C166.727 238.234 165.633 237.027 165.633 234.613V227.43H163.547V225.32H165.633V222.238H168.48ZM179.543 227.922C179.168 227.859 178.781 227.828 178.383 227.828C177.078 227.828 176.199 228.328 175.746 229.328V238H172.898V225.32H175.617L175.688 226.738C176.375 225.637 177.328 225.086 178.547 225.086C178.953 225.086 179.289 225.141 179.555 225.25L179.543 227.922ZM188.566 238C188.441 237.758 188.332 237.363 188.238 236.816C187.332 237.762 186.223 238.234 184.91 238.234C183.637 238.234 182.598 237.871 181.793 237.145C180.988 236.418 180.586 235.52 180.586 234.449C180.586 233.098 181.086 232.062 182.086 231.344C183.094 230.617 184.531 230.254 186.398 230.254H188.145V229.422C188.145 228.766 187.961 228.242 187.594 227.852C187.227 227.453 186.668 227.254 185.918 227.254C185.27 227.254 184.738 227.418 184.324 227.746C183.91 228.066 183.703 228.477 183.703 228.977H180.855C180.855 228.281 181.086 227.633 181.547 227.031C182.008 226.422 182.633 225.945 183.422 225.602C184.219 225.258 185.105 225.086 186.082 225.086C187.566 225.086 188.75 225.461 189.633 226.211C190.516 226.953 190.969 228 190.992 229.352V235.07C190.992 236.211 191.152 237.121 191.473 237.801V238H188.566ZM185.438 235.949C186 235.949 186.527 235.812 187.02 235.539C187.52 235.266 187.895 234.898 188.145 234.438V232.047H186.609C185.555 232.047 184.762 232.23 184.23 232.598C183.699 232.965 183.434 233.484 183.434 234.156C183.434 234.703 183.613 235.141 183.973 235.469C184.34 235.789 184.828 235.949 185.438 235.949ZM199.184 235.961C199.895 235.961 200.484 235.754 200.953 235.34C201.422 234.926 201.672 234.414 201.703 233.805H204.387C204.355 234.594 204.109 235.332 203.648 236.02C203.188 236.699 202.562 237.238 201.773 237.637C200.984 238.035 200.133 238.234 199.219 238.234C197.445 238.234 196.039 237.66 195 236.512C193.961 235.363 193.441 233.777 193.441 231.754V231.461C193.441 229.531 193.957 227.988 194.988 226.832C196.02 225.668 197.426 225.086 199.207 225.086C200.715 225.086 201.941 225.527 202.887 226.41C203.84 227.285 204.34 228.438 204.387 229.867H201.703C201.672 229.141 201.422 228.543 200.953 228.074C200.492 227.605 199.902 227.371 199.184 227.371C198.262 227.371 197.551 227.707 197.051 228.379C196.551 229.043 196.297 230.055 196.289 231.414V231.871C196.289 233.246 196.535 234.273 197.027 234.953C197.527 235.625 198.246 235.961 199.184 235.961ZM209.566 238H206.719V225.32H209.566V238ZM206.543 222.027C206.543 221.59 206.68 221.227 206.953 220.938C207.234 220.648 207.633 220.504 208.148 220.504C208.664 220.504 209.062 220.648 209.344 220.938C209.625 221.227 209.766 221.59 209.766 222.027C209.766 222.457 209.625 222.816 209.344 223.105C209.062 223.387 208.664 223.527 208.148 223.527C207.633 223.527 207.234 223.387 206.953 223.105C206.68 222.816 206.543 222.457 206.543 222.027ZM212.145 231.543C212.145 230.301 212.391 229.184 212.883 228.191C213.375 227.191 214.066 226.426 214.957 225.895C215.848 225.355 216.871 225.086 218.027 225.086C219.738 225.086 221.125 225.637 222.188 226.738C223.258 227.84 223.836 229.301 223.922 231.121L223.934 231.789C223.934 233.039 223.691 234.156 223.207 235.141C222.73 236.125 222.043 236.887 221.145 237.426C220.254 237.965 219.223 238.234 218.051 238.234C216.262 238.234 214.828 237.641 213.75 236.453C212.68 235.258 212.145 233.668 212.145 231.684V231.543ZM214.992 231.789C214.992 233.094 215.262 234.117 215.801 234.859C216.34 235.594 217.09 235.961 218.051 235.961C219.012 235.961 219.758 235.586 220.289 234.836C220.828 234.086 221.098 232.988 221.098 231.543C221.098 230.262 220.82 229.246 220.266 228.496C219.719 227.746 218.973 227.371 218.027 227.371C217.098 227.371 216.359 227.742 215.812 228.484C215.266 229.219 214.992 230.32 214.992 231.789ZM218.812 220H222.059L218.812 223.551H216.527L218.812 220ZM228.984 225.32L229.066 226.785C230.004 225.652 231.234 225.086 232.758 225.086C235.398 225.086 236.742 226.598 236.789 229.621V238H233.941V229.785C233.941 228.98 233.766 228.387 233.414 228.004C233.07 227.613 232.504 227.418 231.715 227.418C230.566 227.418 229.711 227.938 229.148 228.977V238H226.301V225.32H228.984Z" fill="black"/>
</svg>
